<svg height="512pt" viewBox="0 0 512 512" width="512pt" xmlns="http://www.w3.org/2000/svg"><path d="m289.257812 2.410156c-.722656-.148437-1.40625-.277344-2.109374-.320312-10.242188-1.257813-20.589844-2.089844-31.148438-2.089844-141.164062 0-256 114.835938-256 256s114.835938 256 256 256 256-114.835938 256-256c0-129.855469-97.28125-237.207031-222.742188-253.589844zm162.261719 144.597656h-221.480469l64.359376-111.464843c67.523437 11.730469 124.757812 53.652343 157.121093 111.464843zm-151.082031 185.898438h-88.875l-44.4375-76.949219 44.4375-76.949219h88.875l44.4375 76.949219zm-44.4375-300.90625c1.152344 0 2.261719.148438 3.390625.171875l-110.71875 191.785156-64.40625-111.507812c41.132813-49.109375 102.828125-80.449219 171.734375-80.449219zm-192.019531 109.269531 110.652343 191.636719h-128.746093c-8.832031-24.019531-13.886719-49.855469-13.886719-76.90625 0-41.960938 11.820312-81.128906 31.980469-114.730469zm-3.542969 223.636719h221.523438l-64.402344 111.550781c-67.542969-11.753906-124.78125-53.695312-157.121094-111.550781zm195.5625 115.09375c-1.152344 0-2.28125-.148438-3.433594-.171875l110.761719-191.871094 64.425781 111.574219c-41.128906 49.128906-102.824218 80.46875-171.753906 80.46875zm192.042969-109.3125-110.675781-191.679688h128.703124c8.851563 24.042969 13.929688 49.921876 13.929688 76.992188 0 41.941406-11.796875 81.089844-31.957031 114.6875zm0 0"/></svg>