<?xml version="1.0" encoding="utf-8"?>
<!-- Generator: Adobe Illustrator 21.0.0, SVG Export Plug-In . SVG Version: 6.00 Build 0)  -->
<svg version="1.1" id="Layer_1" xmlns="http://www.w3.org/2000/svg" xmlns:xlink="http://www.w3.org/1999/xlink" x="0px" y="0px"
	 width="1400px" height="980px" viewBox="0 0 1400 980" enable-background="new 0 0 1400 980" xml:space="preserve">
<g>
	<path d="M287.5,311.1c-31.3,0-56.6,25.3-56.6,56.6c0,31.3,25.3,56.6,56.6,56.6s56.6-25.3,56.6-56.6
		C344.1,336.5,318.8,311.1,287.5,311.1z M288,392.8c-14.1,0-25.6-11.5-25.6-25.6c0-14.1,11.5-25.6,25.6-25.6
		c14.1,0,25.6,11.5,25.6,25.6C313.6,381.3,302.2,392.8,288,392.8z"/>
	<path d="M395.2,277.2h-51.8l-5.2-15c-1.9-5.4-6.9-8.9-12.6-8.9h-78.2c-5.7,0-10.7,3.6-12.6,8.9l-5.2,15h-51.8
		c-9.7,0-17.7,8-17.7,17.7v144.6c0,9.7,8,17.7,17.7,17.7h217.3c9.7,0,17.7-8,17.7-17.7V294.9C412.9,285.2,405,277.2,395.2,277.2z
		 M207.4,308.7c0,2.4-2,4.4-4.4,4.4h-21.1c-2.4,0-4.4-2-4.4-4.4v-4.9c0-2.4,2-4.4,4.4-4.4H203c2.4,0,4.4,2,4.4,4.4V308.7z
		 M288,434.6c-37.2,0-67.4-30.2-67.4-67.4c0-37.2,30.2-67.4,67.4-67.4c37.2,0,67.4,30.2,67.4,67.4
		C355.4,404.4,325.2,434.6,288,434.6z"/>
</g>
<g>
	<path d="M229.4,738.1l-48.9-48.9c-12.1-12.1-12.1-31.6,0-43.7l89.9-89.9l92.7,92.7l-89.9,89.9C261,750.2,241.5,750.2,229.4,738.1z"
		/>
	<path d="M343.5,523l-45,45l52.1,52.1l45-45L343.5,523z M335.8,570.2l-8.1-8.1l11.8-11.8l8.1,8.1L335.8,570.2z M348.4,582.8
		l11.8-11.8l8.1,8.1l-11.8,11.8L348.4,582.8z"/>
</g>
<path d="M1232,247h-143.7c-4.3,0-7.8,3.5-7.8,7.8v66.4l-18.1,16.2c-1.7,1.5-2.6,3.6-2.6,5.9v15.2h13.5V371l-6.2,2.7
	c-4.5,2-7.4,6.4-7.4,11.3V445c0,6.8,5.5,12.2,12.2,12.2h155.5c6.8,0,12.2-5.5,12.2-12.2V254.7C1239.8,250.5,1236.3,247,1232,247z
	 M1110,314h-13.7v-51.1h13.7V314z M1133.1,314h-13.7v-51.1h13.7V314z M1156.2,314h-13.7v-55.5h13.7V314z M1179.3,314h-13.7v-51.1
	h13.7V314z M1202.3,314h-13.7v-55.5h13.7V314z M1225.4,314h-13.7v-51.1h13.7V314z"/>
<path d="M588.9,605.4h7.6c2.2,0,3.9-1.7,3.9-3.9v-4l21.5,9.7l2.2-4.8l-3.5,7.7l47.1,21.3l7.3-16l-47.1-21.3l-1.3,2.9l-26.1-11.8
	v-3.6c0-2.2-1.7-3.9-3.9-3.9h-4.8v-25.8h7c2.2,0,4-1.8,4-4v-33.5c0-2.2-1.8-4-4-4h-17.8v-10.6h18.8c1.7,0,3-1.4,3-3v-10.3
	c0-1.7-1.4-3-3-3H547c-1.7,0-3,1.4-3,3v10.3c0,1.7,1.4,3,3,3h16.4v10.6h-15.4c-2.2,0-4,1.8-4,4v33.5c0,2.2,1.8,4,4,4h4.7v25.8h-4.8
	c-2.2,0-3.9,1.7-3.9,3.9v19.9c0,2.2,1.7,3.9,3.9,3.9h7.6l-78.8,122.2c-2.6,4.1-1.5,9.5,2.6,12.1c1.5,0.9,3.1,1.4,4.8,1.4
	c2.9,0,5.7-1.4,7.4-4l72-111.6v106.9c0,4.8,3.9,8.8,8.8,8.8c4.8,0,8.8-3.9,8.8-8.8V625.4l72,111.6c1.7,2.6,4.5,4,7.4,4
	c1.6,0,3.3-0.5,4.8-1.4c4.1-2.6,5.2-8.1,2.6-12.1L588.9,605.4z"/>
<path d="M1209.1,542.4h-191.3c-16.9,0-30.7,13.8-30.7,30.7v137.2c0,16.9,13.8,30.7,30.7,30.7h191.3c16.9,0,30.7-13.8,30.7-30.7
	V573.2C1239.8,556.3,1226,542.4,1209.1,542.4z M1150.1,679.1l-47.3,41.3l-16.6-41.3h14.4l14.8-35.8h-47.3l26.6-80.2h33.5l-18.5,55.7
	h48.9l-26.5,60.4H1150.1z"/>
<g>
	<path d="M893.5,271v-40h-17.7v40c2.9-0.3,5.9-0.5,8.9-0.5C887.7,270.4,890.6,270.6,893.5,271z"/>
	<path d="M835.8,241.7l-15.3,8.9l20,34.6c4.7-3.5,9.8-6.5,15.3-8.9L835.8,241.7z"/>
	<path d="M791.2,279.9l-8.9,15.3l34.6,20c2.3-5.5,5.3-10.6,8.9-15.3L791.2,279.9z"/>
	<path d="M811.6,335.2h-40V353h40c-0.3-2.9-0.5-5.9-0.5-8.9S811.2,338.2,811.6,335.2z"/>
	<path d="M782.3,393l8.9,15.3l34.6-20c-3.5-4.7-6.5-9.8-8.9-15.3L782.3,393z"/>
	<path d="M820.5,437.6l15.3,8.9l20-34.6c-5.5-2.3-10.6-5.3-15.3-8.9L820.5,437.6z"/>
	<path d="M875.8,417.2v40h17.7v-40c-2.9,0.3-5.9,0.5-8.9,0.5C881.7,417.8,878.7,417.6,875.8,417.2z"/>
	<path d="M933.6,446.5l15.3-8.9l-20-34.6c-4.7,3.5-9.8,6.5-15.3,8.9L933.6,446.5z"/>
	<path d="M978.2,408.3l8.9-15.3l-34.6-20c-2.3,5.5-5.3,10.6-8.9,15.3L978.2,408.3z"/>
	<path d="M957.8,353h40v-17.7h-40c0.3,2.9,0.5,5.9,0.5,8.9S958.2,350,957.8,353z"/>
	<path d="M987.1,295.2l-8.9-15.3l-34.6,20c3.5,4.7,6.5,9.8,8.9,15.3L987.1,295.2z"/>
	<path d="M948.9,250.6l-15.3-8.9l-20,34.6c5.5,2.3,10.6,5.3,15.3,8.9L948.9,250.6z"/>
	<circle cx="884.7" cy="344.1" r="58.5"/>
</g>
<g>
	<path d="M691.7,255.3L691.7,255.3L691.7,255.3c-3.3-3.7-8-6-13.2-6H506c-9.7,0-17.7,8-17.7,17.7v172.4c0,9.7,8,17.7,17.7,17.7
		h172.4c9.7,0,17.7-8,17.7-17.7V267C696.2,262.6,694.5,258.4,691.7,255.3z M608.9,402.2c0-4.9,4-8.9,8.9-8.9h39.9
		c4.9,0,8.9,4,8.9,8.9c0,4.9-4,8.9-8.9,8.9h-39.9C612.9,411.1,608.9,407.1,608.9,402.2z M506,267h172.4c0,0,0,0,0,0c0,0,0,0,0,0
		l0,1.4l-171,171l-1.4,0c0,0,0,0,0,0c0,0,0,0,0,0L506,267C506,267.1,506.1,267.1,506,267z"/>
	<path d="M530.2,321.7h14.7v14.7c0,4.9,4,8.9,8.9,8.9c4.9,0,8.9-4,8.9-8.9v-14.7h14.7c4.9,0,8.9-4,8.9-8.9c0-4.9-4-8.9-8.9-8.9
		h-14.7v-14.7c0-4.9-4-8.9-8.9-8.9c-4.9,0-8.9,4-8.9,8.9V304h-14.7c-4.9,0-8.9,4-8.9,8.9C521.3,317.8,525.3,321.7,530.2,321.7z"/>
</g>
<g>
	<path d="M913.7,531.2H779.2c-2.1,0-3.9,1.7-3.9,3.9v10.2h142.2V535C917.5,532.9,915.8,531.2,913.7,531.2z"/>
	<path d="M775.3,572.7c0,1.8,0.4,3.6,1,5.3l2.4,5.8h-0.8c-1.4,0-2.6,1.2-2.6,2.6v26.2c0,1.4,1.2,2.6,2.6,2.6h5.1v12.4H779
		c-0.8,0-1.4,0.6-1.4,1.4v0.9l-10.9,3.2c-1.4,0.4-2.4,1.7-2.4,3.1v15.1c0,1.5,1,2.7,2.4,3.1l10.9,3.2v0.5c0,0.8,0.6,1.4,1.4,1.4
		h134.4v-32.1h-3.6v-12.4h5.1c1.4,0,2.6-1.2,2.6-2.6v-26.2c0-1.4-1.2-2.6-2.6-2.6h-0.8l2.4-5.8c0.7-1.7,1-3.4,1-5.3v-16.4H775.3
		V572.7z M815.4,643.5c0-2.2,1.8-4,4-4h50.4c2.2,0,4,1.8,4,4v0.2c0,2.2-1.8,4-4,4h-50.4c-2.2,0-4-1.8-4-4V643.5z"/>
	<g>
		<rect x="777.5" y="667.3" width="135.9" height="32.1"/>
		<path d="M785,709.1v13.2c0,3.8,3.1,6.8,6.8,6.8h107.2c3.8,0,6.8-3.1,6.8-6.8v-13.2l7.5-9.6H777.5L785,709.1z"/>
	</g>
	<path d="M801,743c0,2,1.7,3.7,3.7,3.7h81.5c2,0,3.7-1.7,3.7-3.7v-6.9H801V743z"/>
</g>
</svg>
