<svg id="Layer_1" data-name="Layer 1" xmlns="http://www.w3.org/2000/svg" viewBox="0 0 1400 980"><title>Camera_exposure</title><path d="M287.5,311.1a56.6,56.6,0,1,0,56.6,56.6A56.55,56.55,0,0,0,287.5,311.1Zm.5,81.7a25.6,25.6,0,1,1,25.6-25.6A25.65,25.65,0,0,1,288,392.8Z"/><path d="M395.2,277.2H343.4l-5.2-15a13.25,13.25,0,0,0-12.6-8.9H247.4a13.39,13.39,0,0,0-12.6,8.9l-5.2,15H177.8a17.8,17.8,0,0,0-17.7,17.7V439.5a17.8,17.8,0,0,0,17.7,17.7H395.1a17.8,17.8,0,0,0,17.7-17.7V294.9A17.58,17.58,0,0,0,395.2,277.2ZM207.4,308.7a4.44,4.44,0,0,1-4.4,4.4H181.9a4.44,4.44,0,0,1-4.4-4.4v-4.9a4.44,4.44,0,0,1,4.4-4.4H203a4.44,4.44,0,0,1,4.4,4.4ZM288,434.6a67.4,67.4,0,1,1,67.4-67.4A67.43,67.43,0,0,1,288,434.6Z"/><path d="M229.4,738.1l-48.9-48.9a30.84,30.84,0,0,1,0-43.7l89.9-89.9,92.7,92.7-89.9,89.9A31.05,31.05,0,0,1,229.4,738.1Z"/><path d="M343.5,523l-45,45,52.1,52.1,45-45Zm-7.7,47.2-8.1-8.1,11.8-11.8,8.1,8.1Zm12.6,12.6L360.2,571l8.1,8.1-11.8,11.8Z"/><path d="M1232,247H1088.3a7.81,7.81,0,0,0-7.8,7.8v66.4l-18.1,16.2a7.73,7.73,0,0,0-2.6,5.9v15.2h13.5V371l-6.2,2.7a12.36,12.36,0,0,0-7.4,11.3v60a12.18,12.18,0,0,0,12.2,12.2h155.5a12.18,12.18,0,0,0,12.2-12.2V254.7A7.49,7.49,0,0,0,1232,247Zm-122,67h-13.7V262.9H1110Zm23.1,0h-13.7V262.9h13.7Zm23.1,0h-13.7V258.5h13.7Zm23.1,0h-13.7V262.9h13.7Zm23,0h-13.7V258.5h13.7Zm23.1,0h-13.7V262.9h13.7Z"/><path d="M588.9,605.4h7.6a3.84,3.84,0,0,0,3.9-3.9v-4l21.5,9.7,2.2-4.8-3.5,7.7,47.1,21.3,7.3-16-47.1-21.3-1.3,2.9-26.1-11.8v-3.6a3.84,3.84,0,0,0-3.9-3.9h-4.8V551.9h7a4,4,0,0,0,4-4V514.4a4,4,0,0,0-4-4H581V499.8h18.8a3,3,0,0,0,3-3V486.5a3,3,0,0,0-3-3H547a3,3,0,0,0-3,3v10.3a3,3,0,0,0,3,3h16.4v10.6H548a4,4,0,0,0-4,4v33.5a4,4,0,0,0,4,4h4.7v25.8h-4.8a3.84,3.84,0,0,0-3.9,3.9v19.9a3.84,3.84,0,0,0,3.9,3.9h7.6L476.7,727.6a8.72,8.72,0,0,0,2.6,12.1,9.23,9.23,0,0,0,4.8,1.4,8.79,8.79,0,0,0,7.4-4l72-111.6V732.4a8.8,8.8,0,0,0,17.6,0v-107l72,111.6a8.79,8.79,0,0,0,7.4,4,9.5,9.5,0,0,0,4.8-1.4,8.74,8.74,0,0,0,2.6-12.1Z"/><path d="M1209.1,542.4H1017.8a30.77,30.77,0,0,0-30.7,30.7V710.3a30.77,30.77,0,0,0,30.7,30.7h191.3a30.77,30.77,0,0,0,30.7-30.7V573.2A30.86,30.86,0,0,0,1209.1,542.4Zm-59,136.7-47.3,41.3-16.6-41.3h14.4l14.8-35.8h-47.3l26.6-80.2h33.5l-18.5,55.7h48.9l-26.5,60.4h18Z"/><path d="M893.5,271V231H875.8v40a86.86,86.86,0,0,1,8.9-.5A51.39,51.39,0,0,1,893.5,271Z"/><path d="M835.8,241.7l-15.3,8.9,20,34.6a77.43,77.43,0,0,1,15.3-8.9Z"/><path d="M791.2,279.9l-8.9,15.3,34.6,20a68.72,68.72,0,0,1,8.9-15.3Z"/><path d="M811.6,335.2h-40V353h40a86.86,86.86,0,0,1-.5-8.9A66.4,66.4,0,0,1,811.6,335.2Z"/><path d="M782.3,393l8.9,15.3,34.6-20a77.43,77.43,0,0,1-8.9-15.3Z"/><path d="M820.5,437.6l15.3,8.9,20-34.6a68.72,68.72,0,0,1-15.3-8.9Z"/><path d="M875.8,417.2v40h17.7v-40a86.86,86.86,0,0,1-8.9.5A52,52,0,0,1,875.8,417.2Z"/><path d="M933.6,446.5l15.3-8.9-20-34.6a77.43,77.43,0,0,1-15.3,8.9Z"/><path d="M978.2,408.3l8.9-15.3-34.6-20a68.72,68.72,0,0,1-8.9,15.3Z"/><path d="M957.8,353h40V335.3h-40a86.86,86.86,0,0,1,.5,8.9A64.92,64.92,0,0,1,957.8,353Z"/><path d="M987.1,295.2l-8.9-15.3-34.6,20a77.43,77.43,0,0,1,8.9,15.3Z"/><path d="M948.9,250.6l-15.3-8.9-20,34.6a68.72,68.72,0,0,1,15.3,8.9Z"/><circle cx="884.7" cy="344.1" r="58.5"/><path d="M691.7,255.3h0a17.65,17.65,0,0,0-13.2-6H506A17.8,17.8,0,0,0,488.3,267V439.4A17.8,17.8,0,0,0,506,457.1H678.4a17.8,17.8,0,0,0,17.7-17.7V267A17,17,0,0,0,691.7,255.3ZM608.9,402.2a8.92,8.92,0,0,1,8.9-8.9h39.9a8.9,8.9,0,0,1,0,17.8H617.8A8.92,8.92,0,0,1,608.9,402.2ZM506,267H678.4v1.4l-171,171H506V267C506,267.1,506.1,267.1,506,267Z"/><path d="M530.2,321.7h14.7v14.7a8.9,8.9,0,0,0,17.8,0V321.7h14.7a8.9,8.9,0,0,0,0-17.8H562.7V289.2a8.9,8.9,0,0,0-17.8,0V304H530.2a8.85,8.85,0,1,0,0,17.7Z"/><path d="M913.7,531.2H779.2a3.9,3.9,0,0,0-3.9,3.9v10.2H917.5V535A3.8,3.8,0,0,0,913.7,531.2Z"/><path d="M775.3,572.7a16.06,16.06,0,0,0,1,5.3l2.4,5.8h-.8a2.65,2.65,0,0,0-2.6,2.6v26.2a2.65,2.65,0,0,0,2.6,2.6H783v12.4h-4a1.37,1.37,0,0,0-1.4,1.4v.9l-10.9,3.2a3.3,3.3,0,0,0-2.4,3.1v15.1a3.21,3.21,0,0,0,2.4,3.1l10.9,3.2v.5a1.37,1.37,0,0,0,1.4,1.4H913.4V627.4h-3.6V615h5.1a2.65,2.65,0,0,0,2.6-2.6V586.2a2.65,2.65,0,0,0-2.6-2.6h-.8l2.4-5.8a13.51,13.51,0,0,0,1-5.3V556.1H775.3Zm40.1,70.8a4,4,0,0,1,4-4h50.4a4,4,0,0,1,4,4v.2a4,4,0,0,1-4,4H819.4a4,4,0,0,1-4-4Z"/><rect x="777.5" y="667.3" width="135.9" height="32.1"/><path d="M785,709.1v13.2a6.81,6.81,0,0,0,6.8,6.8H899a6.81,6.81,0,0,0,6.8-6.8V709.1l7.5-9.6H777.5Z"/><path d="M801,743a3.76,3.76,0,0,0,3.7,3.7h81.5a3.76,3.76,0,0,0,3.7-3.7v-6.9H801Z"/></svg>