<?xml version="1.0"?>
<svg xmlns="http://www.w3.org/2000/svg" width="50" height="50" viewBox="0 0 50 50">
    <style type="text/css">
        .st0{fill:#FFFFFF;}
        .st1{fill:#000000;}
    </style>
    <path class="st1" d="M 2 2 L 2 39.96875 L 31 40 L 31 13.59375 L 19.40625 2.03125 L 2 2 z M 19 4 L 29 14 L 19 14 L 19 4 z M 33 10 L 33 28.59375 L 34.28125 27.28125 L 35.71875 28.71875 L 33 31.40625 L 33 32 L 42 32 L 42 34 L 33 34 L 33 34.59375 L 35.71875 37.28125 L 34.28125 38.71875 L 33 37.40625 L 33 42 L 19 42 L 19 47.96875 L 48 48 L 48 21.59375 L 36.40625 10.03125 L 33 10 z M 36 12 L 46 22 L 36 22 L 36 12 z M 17.71875 20.28125 L 23.40625 26 L 17.71875 31.71875 L 16.28125 30.28125 L 19.59375 27 L 10 27 L 10 25 L 19.59375 25 L 16.28125 21.71875 L 17.71875 20.28125 z"/>
</svg>