<svg xmlns="http://www.w3.org/2000/svg" viewBox="0 0 207.8 207.8"><title>Asset 1</title><g id="Layer_2" data-name="Layer 2"><g id="Layer_1-2" data-name="Layer 1"><path d="M203.4,6h0a17.65,17.65,0,0,0-13.2-6H17.7A17.8,17.8,0,0,0,0,17.7V190.1a17.8,17.8,0,0,0,17.7,17.7H190.1a17.8,17.8,0,0,0,17.7-17.7V17.7A17,17,0,0,0,203.4,6ZM120.6,152.9a8.92,8.92,0,0,1,8.9-8.9h39.9a8.9,8.9,0,0,1,0,17.8H129.5A8.92,8.92,0,0,1,120.6,152.9ZM17.7,17.7H190.1v1.4l-171,171H17.7V17.7C17.7,17.8,17.8,17.8,17.7,17.7Z"/><path d="M41.9,72.4H56.6V87.1a8.9,8.9,0,0,0,17.8,0V72.4H89.1a8.9,8.9,0,1,0,0-17.8H74.4V39.9a8.9,8.9,0,0,0-17.8,0V54.7H41.9a8.85,8.85,0,1,0,0,17.7Z"/></g></g></svg>