<svg height="512pt" viewBox="0 0 512 512.02133" width="512pt" xmlns="http://www.w3.org/2000/svg"><path d="m147.632812 200.0625c-7.316406-4.90625-17.257812-2.984375-22.207031 4.332031l-34.691406 51.5625c-3.476563 4.585938-5.375 10.28125-5.375 16.042969 0 14.699219 11.96875 26.667969 26.667969 26.667969h94.230468l-19.457031 183.914062c-.085937.554688-.109375 2.195313-.109375 2.75 0 14.699219 11.96875 26.667969 26.667969 26.667969 8.363281 0 16.34375-4.011719 21.632813-11.09375l80.425781-114.773438c5.078125-7.230468 3.308593-17.214843-3.925781-22.269531-7.210938-5.058593-17.195313-3.328125-22.269532 3.921875l-68.4375 97.6875 19.15625-181.097656c.46875-4.503906-.980468-9.027344-4.011718-12.394531-3.027344-3.394531-7.359376-5.3125-11.902344-5.3125h-101.953125l29.886719-44.394531c4.949218-7.339844 3.007812-17.28125-4.328126-22.210938zm0 0"/><path d="m353.839844 331.199219 67.476562-96.488281c3.476563-4.589844 5.375-10.285157 5.375-16.042969 0-14.699219-11.964844-26.667969-26.664062-26.667969h-115.328125l19.199219-162.175781c.0625-.617188.105468-2.539063.105468-3.15625.023438-14.699219-11.945312-26.667969-26.644531-26.667969-8.363281 0-16.339844 4.011719-21.800781 11.328125l-89.195313 132.375-139.03125-139.011719c-6.25-6.25-16.382812-6.25-22.632812 0-6.25 6.253906-6.25 16.386719 0 22.636719l480 480c3.113281 3.113281 7.210937 4.691406 11.304687 4.691406 4.097656 0 8.195313-1.554687 11.308594-4.691406 6.25-6.25 6.25-16.382813 0-22.636719zm-84.265625-283.414063-18.753907 158.335938c-.53125 4.546875.898438 9.089844 3.925782 12.503906 3.03125 3.414062 7.382812 5.375 11.96875 5.375h123.09375l-58.921875 84.203125-141.441407-141.441406zm0 0"/></svg>