<svg height="512pt" viewBox="-61 0 512 512" width="512pt" xmlns="http://www.w3.org/2000/svg"><path d="m283.285156 169.960938c8.449219 2.605468 17.40625-2.132813 20.011719-10.578126l9.640625-31.382812h35.4375l9.664062 31.382812c2.109376 6.867188 8.445313 11.285157 15.292969 11.285157 1.558594 0 3.136719-.234375 4.714844-.707031 8.449219-2.601563 13.183594-11.5625 10.582031-20.007813l-42.667968-138.667969c-2.066407-6.699218-8.277344-11.285156-15.292969-11.285156-7.019531 0-13.226563 4.585938-15.296875 11.285156l-42.667969 138.667969c-2.601563 8.445313 2.132813 17.40625 10.582031 20.007813zm55.253906-73.960938h-15.746093l7.875-25.601562zm0 0"/><path d="m26.667969 298.667969h94.226562l-19.453125 183.914062c-.085937.554688-.109375 2.195313-.109375 2.75 0 14.699219 11.96875 26.667969 26.667969 26.667969 8.363281 0 16.339844-4.011719 21.632812-11.09375l186.367188-266.238281c3.433594-4.589844 5.332031-10.261719 5.332031-16 0-14.699219-11.964843-26.667969-26.664062-26.667969h-115.328125l19.199218-162.175781c.0625-.617188.105469-2.539063.105469-3.15625.023438-14.699219-11.945312-26.667969-26.644531-26.667969-8.363281 0-16.339844 4.011719-21.800781 11.328125l-164.84375 244.652344c-3.457031 4.5625-5.355469 10.257812-5.355469 16.019531 0 14.699219 11.96875 26.667969 26.667969 26.667969zm157.546875-250.902344-18.753906 158.335937c-.53125 4.542969.894531 9.085938 3.925781 12.5 3.027343 3.414063 7.382812 5.378907 11.96875 5.378907h123.09375l-169.003907 241.425781 19.15625-181.074219c.46875-4.503906-.980468-9.023437-4.007812-12.394531-3.050781-3.351562-7.382812-5.269531-11.925781-5.269531h-101.953125zm0 0"/></svg>