<svg xmlns="http://www.w3.org/2000/svg" viewBox="0 0 634.49 194.05">
	<defs>
		<style>
			.cls-1{
				fill:grey;
			}
		</style>
	</defs>
	<title>IPB-CIMO</title>
	<g id="Layer_2" data-name="Layer 2">
		<g id="Layer_1-2" data-name="Layer 1">
			<path class="cls-1" d="M315.49,98.47c-10.43,12.16-26,20-44.56,23.53a82.66,82.66,0,0,1-5.29-8.43c18.81-3.14,33.72-10.21,43.93-22C311.78,93.67,313.39,96.31,315.49,98.47Z"/>
			<path class="cls-1" d="M307.86,89.27c-10.08,11.79-24.94,18.8-43.94,21.67-1.58-2.73-3.39-5.24-4.82-8.11,19.06-2,33.5-8.67,43.14-20.09C304.33,84.71,305.94,87.14,307.86,89.27Z"/>
			<path class="cls-1" d="M300.69,80.55c-7.66,9.34-20.49,16.42-36,19-1.64.27-5.76,1.16-7,.78-1-.32-1.86-2.7-2.5-3.74a21.65,21.65,0,0,1-2.33-3.9c19.37-.88,33.38-7.12,42.38-18.38C297.37,76.08,298.74,78.6,300.69,80.55Z"/>
			<path class="cls-1" d="M168.88,64c4.7,16.45,14.92,27.35,27.74,35.67-2.55,2.14-5.67,3.7-8.42,5.63-12.79-8.83-23.07-20.14-27.42-37.41C163.59,66.73,166.07,65.23,168.88,64Z"/>
			<path class="cls-1" d="M207.68,92.7c-2.5,2-5.4,3.53-8.1,5.3-13-8.07-23.62-18.55-27.89-35.37,2.54-1.34,5.27-2.52,7.79-3.9C183.78,75.15,194.5,85.16,207.68,92.7Z"/>
			<path class="cls-1" d="M218.27,86c-2.43,1.87-5.3,3.32-7.79,5.15-13.3-7.37-24.41-16.94-28.35-33.66,2.42-1.31,5.14-2.34,7.48-3.73C193.47,70.18,204.54,79.44,218.27,86Z"/>
			<path class="cls-1" d="M308.33,54.53c-2.4.06-4.89.82-6.85.78-.8-14.12-8.74-21.91-16.37-28.67,1.55.05,3.61-.8,5.3-.62,2.07.23,5,3.84,6.38,5.3A41.72,41.72,0,0,1,308.33,54.53Z"/>
			<path class="cls-1" d="M317.05,53.12a65.31,65.31,0,0,1-6.55.94c-2.17-12.88-9.74-21.2-17.28-28.2,1.45,0,3.38-.8,5-.62,2.1.24,4.83,4,6.22,5.46C310,36.59,315,44.53,317.05,53.12Z"/>
			<path class="cls-1" d="M325.3,52c-2.18.15-4,.69-6.22.78-3.21-12-10.62-20.66-18.24-27.74,1.42.16,3.58-.91,5.15-.62.81.15,2.47,1.86,3.43,2.8C315.77,33.62,322.57,42.62,325.3,52Z"/>
			<path class="cls-1" d="M298.82,55.77c-2.54.22-4.85.66-7.32.94,1.68-13.47-6.06-23-14-28.83A56.28,56.28,0,0,0,249,17.29c-12.72-1.18-23.84.85-32.57,5.62-8.57,4.68-17.42,12.65-16.51,26.16.64,9.63,6.66,17,12.93,22C219.48,76.3,228,79.91,237,81.79c21.12,4.44,42.25-2.39,51.11-16.2a46.49,46.49,0,0,1,5.14,6.24c-5.73,7.56-14.07,13-24.16,15.88-10.83,3.15-24.12,3.27-35.52.79a62.45,62.45,0,0,1-27.11-12.94c-7.17-6.12-13.62-13.87-14.34-25.55-.77-12.72,6.8-21.43,14.65-26.95,8.32-5.86,19-9.73,32.1-10A71.85,71.85,0,0,1,279.19,24C289.49,30.51,298.17,39.55,298.82,55.77Z"/>
			<path class="cls-1" d="M221.39,14.49c-12.17,3.88-22.21,9.88-28,20.1-2-.89-3.65-2.15-5.6-3.12,5.8-9,17.16-16,28.2-19.47C217.39,11.53,219.82,14.54,221.39,14.49Z"/>
			<path class="cls-1" d="M214.53,11.06c-11.86,4.08-21.78,10.1-28.51,19.32-1.85-.9-3.41-2.09-5.29-3,7.13-8.79,17.14-14.73,29-18.84C211.34,9.38,212.87,10.29,214.53,11.06Z"/>
			<path class="cls-1" d="M273.27,15.11c0,1.38-.34,2.47-.47,3.74a79.94,79.94,0,0,0-37.23-6.7c.52-1.14.88-2.44,1.4-3.58A86.78,86.78,0,0,1,273.27,15.11Z"/>
			<path class="cls-1" d="M208,8a68.23,68.23,0,0,0-29.13,18.38c-1.45-1.2-3.53-1.76-4.84-3.12,7.11-7.27,18.3-13.92,28.67-17.6C204.15,5.1,206.66,7.2,208,8Z"/>
			<path class="cls-1" d="M238.84,4.05a101.57,101.57,0,0,1,35.06,6.39,29.29,29.29,0,0,1-.47,3.58,88.51,88.51,0,0,0-36-6.55A9.93,9.93,0,0,1,238.84,4.05Z"/>
			<path class="cls-1" d="M240.24,0a110.88,110.88,0,0,1,34.27,6.07c-.07,1.18-.33,2.16-.46,3.27A103.61,103.61,0,0,0,239,3.12,16.77,16.77,0,0,1,240.24,0Z"/>
			<path class="cls-1" d="M0,154.66V134.11H4.61v20.55Z"/>
			<path class="cls-1" d="M21.43,155l-8.43-13h0l.13,12.6H9V134.11h3.69l8.15,12.49h0l-.17-12.49h4.13v20.27Z"/>
			<path class="cls-1" d="M34.39,155.06A14.18,14.18,0,0,1,28,153.67l1.47-3.86A10.38,10.38,0,0,0,34,151.07c1.87,0,3-.65,3-2,0-1.23-.85-1.68-2.32-2.33l-2.59-1.12c-2.29-1-4-2.46-4-5.67,0-3.92,3.45-6.21,7.2-6.21a13,13,0,0,1,5.53,1.23l-1.5,3.76a8.8,8.8,0,0,0-3.79-1.1c-1.67,0-3,.62-3,2,0,1.22.92,1.63,2.05,2.11l2.66,1.13c2.53,1.06,4.27,2.69,4.27,5.29A6.76,6.76,0,0,1,34.39,155.06Z"/>
			<path class="cls-1" d="M52.26,138v16.69h-4.6V138H42.13v-3.86H57.79V138Z"/>
			<path class="cls-1" d="M60,154.66V134.11h4.61v20.55Z"/>
			<path class="cls-1" d="M77,138v16.69h-4.6V138H66.9v-3.86H82.56V138Z"/>
			<path class="cls-1" d="M93.07,155.13c-5.49,0-8.33-2.9-8.33-9v-12h4.65V146c0,3.45,1.19,4.75,3.68,4.75s3.65-1.71,3.65-4.41V134.11h4.47v12.08C101.19,151.75,98.16,155.13,93.07,155.13Z"/>
			<path class="cls-1" d="M113.51,138v16.69H108.9V138h-5.53v-3.86H119V138Z"/>
			<path class="cls-1" d="M129,155.06c-7.31,0-9.8-5.49-9.8-10.71s2.43-10.65,9.8-10.65,9.76,5.36,9.76,10.65S136.26,155.06,129,155.06Zm0-17.47c-3.42,0-5,2.56-5,6.76s1.61,6.86,5,6.86,5-2.63,5-6.86S132.44,137.59,129,137.59Z"/>
			<path class="cls-1" d="M153.66,147.18h-.3v7.48h-4.51V134.32a42.06,42.06,0,0,1,5.56-.41c4.82,0,7.55,2,7.55,5.77C162,144.32,158.13,147.18,153.66,147.18Zm.79-9.89a10.5,10.5,0,0,0-1.09.06v6.45h.3c2.15,0,3.93-1.26,3.93-3.65C157.59,138,156.29,137.29,154.45,137.29Z"/>
			<path class="cls-1" d="M173.39,155.06c-7.31,0-9.8-5.49-9.8-10.71s2.42-10.65,9.8-10.65,9.75,5.36,9.75,10.65S180.65,155.06,173.39,155.06Zm0-17.47c-3.42,0-5,2.56-5,6.76s1.61,6.86,5,6.86,5-2.63,5-6.86S176.83,137.59,173.39,137.59Z"/>
			<path class="cls-1" d="M186.42,154.66V134.11H191V150.8h7.17v3.86Z"/>
			<path class="cls-1" d="M200.51,154.66V134.11h4.6v20.55Z"/>
			<path class="cls-1" d="M217.5,138v16.69h-4.61V138h-5.52v-3.86H223V138Z"/>
			<path class="cls-1" d="M225.28,154.66V134.11h10.95V138h-6.41v4.43h5.7v3.69h-5.7v4.71h6.93v3.86ZM229,132.88l-1.5-2.32L234,126l1.91,2.93Z"/>
			<path class="cls-1" d="M247.72,155.06c-5.32,0-9.28-3.58-9.28-10.33,0-7.1,4.4-11,10.38-11a12.89,12.89,0,0,1,5.9,1.3l-1.67,3.86a8.19,8.19,0,0,0-4.17-1.1c-2.93,0-5.66,2.12-5.66,6.45,0,4.71,1.84,6.73,5.7,6.73a9.41,9.41,0,0,0,4.33-1.2l1.54,3.62A13.68,13.68,0,0,1,247.72,155.06Z"/>
			<path class="cls-1" d="M269.83,155l-8.43-13h0l.14,12.6h-4.13V134.11h3.68l8.16,12.49h0l-.17-12.49h4.13v20.27Z"/>
			<path class="cls-1" d="M277.58,154.66V134.11h4.6v20.55Z"/>
			<path class="cls-1" d="M294.74,155.06c-5.32,0-9.28-3.58-9.28-10.33,0-7.1,4.4-11,10.37-11a12.93,12.93,0,0,1,5.91,1.3l-1.68,3.86a8.12,8.12,0,0,0-4.16-1.1c-2.93,0-5.66,2.12-5.66,6.45,0,4.71,1.84,6.73,5.69,6.73a9.41,9.41,0,0,0,4.34-1.2l1.53,3.62A13.62,13.62,0,0,1,294.74,155.06Z"/>
			<path class="cls-1" d="M312.41,155.06c-7.3,0-9.79-5.49-9.79-10.71s2.42-10.65,9.79-10.65,9.76,5.36,9.76,10.65S319.68,155.06,312.41,155.06Zm0-17.47c-3.41,0-5,2.56-5,6.76s1.61,6.86,5,6.86,5-2.63,5-6.86S315.86,137.59,312.41,137.59Z"/>
			<path class="cls-1" d="M140.5,186.44h-4.84V166.07a57.89,57.89,0,0,1,6.38-.38c6.38,0,10.71,2.94,10.71,9.21C152.75,182.31,147.94,186.44,140.5,186.44Zm1.47-17c-.95,0-1.71.07-1.71.07v12.79h1.2c4,0,6.58-2.28,6.58-7.09C148,171.32,145.52,169.48,142,169.48Z"/>
			<path class="cls-1" d="M156,186.44V165.9H167v3.85h-6.41v4.44h5.69v3.68h-5.69v4.71h6.92v3.86Z"/>
			<path class="cls-1" d="M182.5,186.44h-5V166.07a50.93,50.93,0,0,1,5.76-.38c5,0,7.31,1.64,7.31,4.74,0,2.6-1.68,3.86-3.83,4.68v0c3.14.35,5.26,2.05,5.26,4.88C192,184.22,188.58,186.44,182.5,186.44Zm.45-17.37a7.46,7.46,0,0,0-1.06.07v5.15c2.15,0,4-.61,4-2.83C185.92,169.72,184.79,169.07,183,169.07Zm.17,8.33h-1.23v5.39h2c2.08,0,3.45-.92,3.45-2.66C187.35,178.18,185.88,177.4,183.12,177.4Z"/>
			<path class="cls-1" d="M205.7,187l-4.81-8.73a9.07,9.07,0,0,1-1.26.06h-.31v8.16h-4.5V166.1a46.26,46.26,0,0,1,5.56-.41c4.74,0,7.51,1.81,7.51,5.67a6.08,6.08,0,0,1-3.14,5.25l5.08,8.63ZM200.35,169a7.45,7.45,0,0,0-1,.07v6.25h.28c2.08,0,4-1,4-3.52C203.59,169.75,202.12,169,200.35,169Z"/>
			<path class="cls-1" d="M224.26,187l-1.74-6.28h-5.73l-1.57,5.7h-4.61l6.83-20.54h4.67l6.56,20Zm-4.53-16.76h0l-2.08,7.51h4.16Z"/>
			<path class="cls-1" d="M245.1,170.64a10.23,10.23,0,0,0-4.7-1.13c-3.55,0-6.15,2.26-6.15,6.38,0,4.58,1.88,6.76,6,6.76a11.23,11.23,0,0,0,1.74-.17V176h4.54v9.66a22.6,22.6,0,0,1-7.64,1.16c-5.6,0-9.49-4-9.49-10.38,0-6.72,4.61-11,11-11a14,14,0,0,1,6.15,1.26Z"/>
			<path class="cls-1" d="M262.06,187l-1.74-6.28h-5.73l-1.57,5.7h-4.61l6.82-20.54h4.68l6.55,20Zm-4.54-16.76h0l-2.08,7.51h4.16Z"/>
			<path class="cls-1" d="M281.17,186.81l-8.43-13h0l.14,12.59h-4.13V165.9h3.69l8.15,12.48h0l-.17-12.48h4.13v20.27Z"/>
			<path class="cls-1" d="M297.1,186.85c-5.32,0-9.28-3.59-9.28-10.34,0-7.1,4.4-11,10.37-11a12.93,12.93,0,0,1,5.91,1.29l-1.68,3.86a8.13,8.13,0,0,0-4.16-1.09c-2.93,0-5.66,2.11-5.66,6.45,0,4.71,1.84,6.72,5.7,6.72a9.41,9.41,0,0,0,4.33-1.2l1.54,3.62A13.69,13.69,0,0,1,297.1,186.85Zm-2,7.2-.65-1.71s1.88-.61,1.88-1.67a.75.75,0,0,0-.82-.85,2.19,2.19,0,0,0-.68.13l-.65-1.7a5.23,5.23,0,0,1,2.35-.58,2.33,2.33,0,0,1,2.56,2.49C299.11,193.19,295.12,194.05,295.12,194.05Z"/>
			<path class="cls-1" d="M318.79,187l-1.74-6.28h-5.73l-1.57,5.7h-4.61L312,165.9h4.67l6.56,20Zm-4.54-16.76h0l-2.08,7.51h4.16Z"/>
			<path class="cls-1" d="M471.06,48.71a29.22,29.22,0,0,1-.67,25.84,28.37,28.37,0,0,1-17.6,14.26,29.36,29.36,0,0,1-25.17-4.57A28,28,0,0,1,416,64c-.54-5-.11-10.49-.11-15.82V.37c0-.16,0-.32.11-.33h12.7V36.79a35.69,35.69,0,0,1,11.47-4.35,29.12,29.12,0,0,1,30.86,16.27ZM460.81,62.52a16.09,16.09,0,0,0-4.57-12.8,16.19,16.19,0,0,0-26.51,5.78,16.06,16.06,0,1,0,31.08,7Z"/>
			<path class="cls-1" d="M408,42.47a29.59,29.59,0,0,1,5.46,26.74,28.8,28.8,0,0,1-16.26,18.37,30,30,0,0,1-14.82,2.12,29.54,29.54,0,0,1-12.7-4.57V122H356.88V63.86c0-5.26.45-9.1,1.79-12.81A28.86,28.86,0,0,1,408,42.47Zm-10.8,29.85a15.91,15.91,0,0,0,4.56-12.58,16.54,16.54,0,0,0-4.56-10,15.85,15.85,0,0,0-13.15-4.57A15.1,15.1,0,0,0,376.38,48a15.54,15.54,0,0,0-6.69,13,16.12,16.12,0,0,0,9.47,14.58A16.33,16.33,0,0,0,397.21,72.32Z"/>
			<path class="cls-1" d="M354.32,34.27V89.7c-.47.15-.92-.33-1.22-.56a28.31,28.31,0,0,1-11.59-20.83c-.69-11.09.51-22.15,0-33.7,0-.16,0-.31.11-.34Z"/>
			<path class="cls-1" d="M354.32,18.68V31.6H341.51V19c0-.16,0-.32.11-.34Z"/>
			<path class="cls-1" d="M351.8,155c-5,0-8.87-3.38-8.87-10.2,0-7.27,4.3-11.09,9.83-11.09a12.23,12.23,0,0,1,5.42,1.09l-1.09,2.49a9.85,9.85,0,0,0-4.37-1c-3.58,0-6.86,2.76-6.86,7.81,0,5.63,2.08,8.39,7.07,8.39a10.76,10.76,0,0,0,4.36-1.19l1,2.29A13.24,13.24,0,0,1,351.8,155Z"/>
			<path class="cls-1" d="M366.78,155c-4.71,0-7.14-3.17-7.14-8.46,0-4.95,2.6-8.26,6.62-8.26,3.86,0,5.43,2.56,5.43,6.07v1.91h-9.38c0,4.27,1.57,6.32,5.05,6.32a7.42,7.42,0,0,0,3.51-1l1,2.15A10,10,0,0,1,366.78,155Zm-.65-14.54c-2.05,0-3.35,1.61-3.69,3.89h6.69C369.13,142,368.24,140.46,366.13,140.46Z"/>
			<path class="cls-1" d="M384.92,154.62V144.25c0-2.35-.88-3.55-3-3.55a5.18,5.18,0,0,0-3.62,1.54v12.38h-2.73V142.34l-.48-3.52,2.7-.44.27,1.88h0a6.65,6.65,0,0,1,4.74-2,4.63,4.63,0,0,1,4.84,5v11.32Z"/>
			<path class="cls-1" d="M397,155c-2.45,0-4-1.61-4-4.34v-9.76h-2.36v-1.81l2.36-.47v-2.67l2.69-.34v3.07h4.47v2.22H395.7v8.84c0,2.15.55,2.83,2.12,2.83a3.58,3.58,0,0,0,2-.65l.89,2.09A6.71,6.71,0,0,1,397,155Z"/>
			<path class="cls-1" d="M406.72,142.61v12H404V142.34l-.47-3.52,2.69-.44.27,2.18h0a6,6,0,0,1,4.64-2.25V141A6.12,6.12,0,0,0,406.72,142.61Z"/>
			<path class="cls-1" d="M419.48,155c-5.05,0-6.83-3.58-6.83-8.36s2.22-8.36,6.83-8.36c5,0,6.82,3.58,6.82,8.36S424.08,155,419.48,155Zm0-14.33c-2.63,0-4,1.84-4,5.87s1.33,6.07,4,6.07,4-1.88,4-5.9S422.17,140.67,419.48,140.67Z"/>
			<path class="cls-1" d="M446.46,154.9l-.24-1.61h0a6.56,6.56,0,0,1-4.3,1.71c-3.51,0-5.87-2.9-5.87-7.64,0-5.5,2.83-8.88,7.68-8.88a8.37,8.37,0,0,1,2.22.24v-3.44l-.51-3.52,3.2-.44V151l.48,3.51Zm-.54-13.69a5.85,5.85,0,0,0-2.46-.44c-3.11,0-4.64,2.7-4.64,5.73,0,3.86,1,6.11,4,6.11a4.77,4.77,0,0,0,3.08-1.19Z"/>
			<path class="cls-1" d="M459.77,155c-4.71,0-7.14-3.17-7.14-8.46,0-4.95,2.6-8.26,6.62-8.26,3.86,0,5.43,2.56,5.43,6.07v1.91H455.3c0,4.27,1.57,6.32,5.05,6.32a7.42,7.42,0,0,0,3.51-1l1,2.15A10,10,0,0,1,459.77,155Zm-.65-14.54c-2.05,0-3.35,1.61-3.69,3.89h6.69C462.12,142,461.23,140.46,459.12,140.46Z"/>
			<path class="cls-1" d="M475.46,154.62V134.08h2.86v20.54Z"/>
			<path class="cls-1" d="M492.93,154.62V144.25c0-2.35-.89-3.55-3-3.55a5.18,5.18,0,0,0-3.62,1.54v12.38h-2.73V142.34l-.48-3.52,2.7-.44.27,1.88h0a6.65,6.65,0,0,1,4.74-2,4.63,4.63,0,0,1,4.85,5v11.32Z"/>
			<path class="cls-1" d="M506.05,154.59l-2.69.1-5.26-15.8,2.73-.68,4,12.86h0l4.27-12.42h2.73Z"/>
			<path class="cls-1" d="M520.55,155c-4.71,0-7.13-3.17-7.13-8.46,0-4.95,2.59-8.26,6.62-8.26,3.86,0,5.43,2.56,5.43,6.07v1.91h-9.39c0,4.27,1.57,6.32,5,6.32a7.46,7.46,0,0,0,3.52-1l1,2.15A9.9,9.9,0,0,1,520.55,155Zm-.65-14.54c-2,0-3.34,1.61-3.68,3.89h6.69C522.91,142,522,140.46,519.9,140.46Z"/>
			<path class="cls-1" d="M532.87,155a10.88,10.88,0,0,1-4.58-.86l.82-2.39a8.9,8.9,0,0,0,3.62.92c1.84,0,3.07-.71,3.07-2.21,0-1.16-.61-1.64-1.67-2.12l-3-1.36a4.34,4.34,0,0,1-3-4.2c0-3,2.66-4.47,5.56-4.47a10.28,10.28,0,0,1,4.34.85l-.92,2.36a8.26,8.26,0,0,0-3.45-.82c-1.74,0-2.87.54-2.87,1.91,0,1.19,1,1.67,1.68,2l3,1.43c2.12,1,3,2.25,3,4C538.56,152.88,536.28,155,532.87,155Z"/>
			<path class="cls-1" d="M546.85,155c-2.45,0-4-1.61-4-4.34v-9.76h-2.36v-1.81l2.36-.47v-2.67l2.69-.34v3.07H550v2.22h-4.47v8.84c0,2.15.55,2.83,2.12,2.83a3.58,3.58,0,0,0,2-.65l.88,2.09A6.67,6.67,0,0,1,546.85,155Z"/>
			<path class="cls-1" d="M555.28,136.47a2,2,0,1,1,1.94-2A2,2,0,0,1,555.28,136.47Zm-1.4,18.15V142.34l-.48-3.52,3.21-.44v16.24Z"/>
			<path class="cls-1" d="M571.55,140.67a5.64,5.64,0,0,1,.75,2.93,5.29,5.29,0,0,1-5.63,5.43,7.75,7.75,0,0,1-1.8-.24,2.25,2.25,0,0,0-1.1,1.84c0,1.06.79,1.26,1.88,1.26h4.57c2.8,0,4.44.86,4.44,3.35,0,3.14-3.21,6.69-9,6.69-3.35,0-5.4-1.64-5.4-4.44a4.8,4.8,0,0,1,2.15-3.92,2.52,2.52,0,0,1-1.12-2.26,3.87,3.87,0,0,1,2-3.13A5.13,5.13,0,0,1,561,143.6c0-3.24,2.38-5.39,5.69-5.39a6.18,6.18,0,0,1,3.25.82l4.84-.75v2.39Zm-1.94,13.58h-4.3a10.15,10.15,0,0,1-1.37-.1,3.73,3.73,0,0,0-1.29,2.73c0,1.84,1.12,2.83,3.58,2.83,3.92,0,6-2.32,6-4.06C572.27,154.49,571.28,154.25,569.61,154.25Zm-2.94-14a3,3,0,0,0-3.13,3.34c0,2.25,1.26,3.38,3.13,3.38s3.08-1.19,3.08-3.38S568.52,140.26,566.67,140.26Z"/>
			<path class="cls-1" d="M585.74,154.9,585.5,153h0a6.06,6.06,0,0,1-4.33,2,3.86,3.86,0,0,1-4.23-4.13c0-2.86,2.25-4.26,5.49-4.6l2.87-.31v-1.43c0-2.22-.68-3.79-3.31-3.79a7.08,7.08,0,0,0-3.31.92l-1-2a9,9,0,0,1,5-1.4c3.21,0,5.36,1.88,5.36,5.05v7.61l.51,3.51Zm-.48-7.07-2.49.35c-2,.27-3.17.92-3.17,2.38a2.05,2.05,0,0,0,2.18,2.22,4.91,4.91,0,0,0,3.48-1.47Z"/>
			<path class="cls-1" d="M602.56,141.42a8.31,8.31,0,0,0-3-.65c-3,0-4.81,2.25-4.81,5.63,0,4.27,1.68,6.21,4.75,6.21a7,7,0,0,0,2.86-.75l.93,2.22a10.4,10.4,0,0,1-4.34.92c-4.57,0-6.93-3.28-6.93-8.16,0-5.87,3.62-8.56,7.68-8.56a10,10,0,0,1,3.72.68Zm-5.84,20.81-.75-1.46s2.19-1.06,2.19-2.12c0-.65-.24-1-1-1a2.47,2.47,0,0,0-.82.17l-.51-1.4a4.39,4.39,0,0,1,2.22-.58,2.15,2.15,0,0,1,2.22,2.35C600.24,161,596.72,162.23,596.72,162.23Z"/>
			<path class="cls-1" d="M614.57,154.9l-.24-1.88h0a6.06,6.06,0,0,1-4.33,2,3.86,3.86,0,0,1-4.23-4.13c0-2.86,2.25-4.26,5.49-4.6l2.87-.31v-1.43c0-2.22-.68-3.79-3.31-3.79a7.08,7.08,0,0,0-3.31.92l-1-2a9,9,0,0,1,4.95-1.4c3.2,0,5.35,1.88,5.35,5.05v7.61l.51,3.51Zm-1.16-18.57c-1.2,0-2.53-1.12-3.42-1.12a2,2,0,0,0-1.7,1.06L607,135.21a3.67,3.67,0,0,1,3.31-2.19c1.19,0,2.49,1.1,3.41,1.1a2,2,0,0,0,1.7-1l1.3,1A3.6,3.6,0,0,1,613.41,136.33Zm.68,11.5-2.49.35c-2.05.27-3.18.92-3.18,2.38a2.06,2.06,0,0,0,2.19,2.22,4.91,4.91,0,0,0,3.48-1.47Z"/>
			<path class="cls-1" d="M627.66,155c-5,0-6.82-3.58-6.82-8.36s2.22-8.36,6.82-8.36c5.06,0,6.83,3.58,6.83,8.36S632.27,155,627.66,155Zm0-14.33c-2.62,0-4,1.84-4,5.87s1.33,6.07,4,6.07,4-1.88,4-5.9S630.36,140.67,627.66,140.67Z"/>
			<path class="cls-1" d="M353.37,186.68l-.24-1.6h0a6.66,6.66,0,0,1-4.3,1.71c-3.52,0-5.87-2.9-5.87-7.65,0-5.49,2.83-8.87,7.68-8.87a8.29,8.29,0,0,1,2.21.24v-3.45l-.51-3.51,3.21-.44v19.68l.48,3.52ZM352.82,173a5.76,5.76,0,0,0-2.45-.44c-3.11,0-4.64,2.69-4.64,5.73,0,3.86,1,6.11,4,6.11a4.71,4.71,0,0,0,3.07-1.2Z"/>
			<path class="cls-1" d="M366.67,186.79c-4.71,0-7.13-3.18-7.13-8.47,0-4.94,2.6-8.25,6.62-8.25,3.86,0,5.43,2.56,5.43,6.07v1.91H362.2c0,4.27,1.57,6.31,5.05,6.31a7.42,7.42,0,0,0,3.52-1l1,2.15A9.9,9.9,0,0,1,366.67,186.79ZM366,172.25c-2,0-3.35,1.6-3.69,3.89H369C369,173.75,368.14,172.25,366,172.25Z"/>
			<path class="cls-1" d="M400.59,186.55l-.58-15.9h0l-6,15.76h-3l-5.69-15.73h0l-.82,15.73h-2.49l1.33-20.54h3L392.7,183h0l6.52-17.13h3l1.09,20.47Z"/>
			<path class="cls-1" d="M413.78,186.79c-5,0-6.83-3.59-6.83-8.36s2.22-8.36,6.83-8.36c5.05,0,6.82,3.58,6.82,8.36S418.39,186.79,413.78,186.79Zm0-14.33c-2.63,0-4,1.84-4,5.86s1.33,6.08,4,6.08,4-1.88,4-5.91S416.48,172.46,413.78,172.46Z"/>
			<path class="cls-1" d="M434,186.41V176c0-2.36-.89-3.55-3-3.55a5.18,5.18,0,0,0-3.62,1.54v12.38h-2.73V174.13l-.48-3.52,2.7-.44.27,1.88h0a6.65,6.65,0,0,1,4.74-2,4.63,4.63,0,0,1,4.85,5v11.33Z"/>
			<path class="cls-1" d="M446.09,186.75c-2.46,0-4-1.6-4-4.33v-9.76H439.7v-1.81l2.36-.48v-2.66l2.7-.34v3.07h4.47v2.22h-4.47v8.84c0,2.15.54,2.83,2.11,2.83a3.58,3.58,0,0,0,2-.65l.89,2.08A6.61,6.61,0,0,1,446.09,186.75Z"/>
			<path class="cls-1" d="M460.79,186.68l-.24-1.87h0a6.08,6.08,0,0,1-4.34,2,3.86,3.86,0,0,1-4.23-4.13c0-2.86,2.25-4.26,5.5-4.6l2.86-.31v-1.44c0-2.21-.68-3.78-3.31-3.78a7.08,7.08,0,0,0-3.31.92l-1-2a9,9,0,0,1,4.95-1.4c3.21,0,5.36,1.87,5.36,5.05v7.61l.51,3.51Zm-.48-7.06-2.49.34c-2.05.28-3.17.92-3.17,2.39a2.05,2.05,0,0,0,2.18,2.22,4.87,4.87,0,0,0,3.48-1.47Z"/>
			<path class="cls-1" d="M477.54,186.41V176c0-2.36-.89-3.55-3-3.55a5.17,5.17,0,0,0-3.61,1.54v12.38h-2.73V174.13l-.48-3.52,2.7-.44.27,1.88h0a6.69,6.69,0,0,1,4.75-2,4.63,4.63,0,0,1,4.84,5v11.33Z"/>
			<path class="cls-1" d="M494.63,186.41V176c0-2.32-.92-3.52-3.1-3.52A5.09,5.09,0,0,0,488,174v12.38h-2.73V167.06l-.48-3.51,3.21-.44v8.73h0a6.75,6.75,0,0,1,4.51-1.77c2.73,0,4.81,1.7,4.81,5v11.33Z"/>
			<path class="cls-1" d="M510.16,186.68l-.24-1.87h0a6.06,6.06,0,0,1-4.33,2,3.86,3.86,0,0,1-4.23-4.13c0-2.86,2.25-4.26,5.49-4.6l2.87-.31v-1.44c0-2.21-.69-3.78-3.31-3.78a7.08,7.08,0,0,0-3.31.92l-1-2a9,9,0,0,1,4.95-1.4c3.2,0,5.35,1.87,5.35,5.05v7.61l.52,3.51Zm-.48-7.06-2.49.34c-2.05.28-3.18.92-3.18,2.39a2.06,2.06,0,0,0,2.19,2.22,4.91,4.91,0,0,0,3.48-1.47Z"/>
		</g>
	</g>
</svg>