<svg height="512pt" viewBox="0 -64 512 512" width="512pt" xmlns="http://www.w3.org/2000/svg"><path d="m453.332031 0h-394.664062c-32.363281 0-58.667969 26.304688-58.667969 58.667969v266.664062c0 32.363281 26.304688 58.667969 58.667969 58.667969h394.664062c32.363281 0 58.667969-26.304688 58.667969-58.667969v-266.664062c0-32.363281-26.304688-58.667969-58.667969-58.667969zm26.667969 325.332031c0 14.699219-11.96875 26.667969-26.667969 26.667969h-394.664062c-14.699219 0-26.667969-11.96875-26.667969-26.667969v-266.664062c0-14.699219 11.96875-26.667969 26.667969-26.667969h394.664062c14.699219 0 26.667969 11.96875 26.667969 26.667969zm0 0"/><path d="m389.332031 106.667969h-32c-20.585937 0-37.332031 16.746093-37.332031 37.332031v96c0 20.585938 16.746094 37.332031 37.332031 37.332031h32c20.589844 0 37.335938-16.746093 37.335938-37.332031v-96c0-20.585938-16.746094-37.332031-37.335938-37.332031zm5.335938 133.332031c0 2.945312-2.390625 5.332031-5.335938 5.332031h-32c-2.941406 0-5.332031-2.386719-5.332031-5.332031v-96c0-2.945312 2.390625-5.332031 5.332031-5.332031h32c2.945313 0 5.335938 2.386719 5.335938 5.332031zm0 0"/><path d="m117.332031 106.667969c-8.832031 0-16 7.167969-16 16v138.664062c0 8.832031 7.167969 16 16 16s16-7.167969 16-16v-138.664062c0-8.832031-7.167969-16-16-16zm0 0"/><path d="m224 138.667969h37.332031c8.832031 0 16-7.167969 16-16s-7.167969-16-16-16h-37.332031c-29.398438 0-53.332031 23.914062-53.332031 53.332031 0 28.265625 21.929687 48 53.332031 48 4.992188 0 21.332031 1.152344 21.332031 16 0 11.777344-9.578125 21.332031-21.332031 21.332031h-37.332031c-8.832031 0-16 7.167969-16 16s7.167969 16 16 16h37.332031c29.398438 0 53.332031-23.914062 53.332031-53.332031 0-28.265625-21.929687-48-53.332031-48-4.992188 0-21.332031-1.152344-21.332031-16 0-11.777344 9.578125-21.332031 21.332031-21.332031zm0 0"/></svg>