<svg class="pt" xmlns="http://www.w3.org/2000/svg" viewBox="0 0 219.85 223.47">

    <defs>
        <style>


            .land{
            fill-opacity: 1;
            stroke:white;
            stroke-opacity: 1;
            stroke-width:0.5;
            }

            .isleMadeira{
            fill-opacity: 1;
            stroke:white;
            stroke-opacity: 1;
            stroke-width:0;
            }

            .isleAcores{
            fill-opacity: 1;
            stroke:white;
            stroke-opacity: 1;
            stroke-width:0;
            }

            .box{
            fill:none;
            stroke:#000000;
            stroke-width:0.25px;
            }

        </style>

    </defs>

    <title>Portugal Regiões</title>


    <path id="PT-01" fill="#CCCCCC" class="land" d="M138.41,52.07l1.23-.41.14.72,1.4-.29.91-1,.42,1,.65.22.09-.5.79-.33-.82-.39.2-.55.93.43.25-.46.59,1.29,1.29.88.19-.9-.55-.38.06-.84,1.62.49,1.68-1.65,1,.6h0l.85.34.2,1.26-.32.09.2.56,1,.07L152,53l.59-.17,1.92.82,1.09-1.45.25.19.06.89-1.37,1.65.15,2.07.79,1.3-.84.75-1.19-.72-.73.83-1.28-.77-.76.37.57,1.27-1.13,2.85-1.88.71.19,1.19.92.75.08,2.41,1.55.78-2,.83.74,2.38,1.1,1.16-2.7,1,.57,1.85-1.18,1.34,0,1.72h0l-.05.82-.55.25-.94-.44-.14,1.16-1.24.26-.18,1.58-1.07-.54-1.12.07-.2-1h1.42l.12-2.9-.74-.59v-.92l-2.14.91L140.62,75l-.29-.59-1-.27-.53.82-.11,1.63-.88-.09h0l-1.23-1.27h0L134,72.68h0l1-4.22.07-.74-.44-.14L137.22,59Z"/>
    <path id="PT-02" fill="#CCCCCC" class="land" d="M153.58,162.26l.39-.38.66.66,2.4-.62,1.44,1.16.89-.75,4.5,2.66,2.52.21,2.83,1.85,1.09-.37,1.44.23.7.6h2.19l.06-.73,1-.41h0l.82-1h0l.18-.7.73-.27.39-.92-.31-.33,1.61,0,.59-.86,1.57-.41,1.36,2.72,1.71.67-.28.9,1.24,2.57.3.12-.06-.67.69.08h0l.71-.66h0l.74.75.57-.69.22.35,1-.19.55-.88,1-.27.27.37,1.14-.72.06.73-1.11,1.42.53.55-.58,1.68-.54.34-.45,3.18-1.41.33-1.64-1.18-.94.57.24,1-1.66.47-.91-.42-1.91.94.45,1-.21,1.28-.86,1,0,1.14-1.29,2.12-2.28,2.06-.78.2-.84,2.45.14,1.3-.39.1,0,.62-.4-.12-.68,1.81-.48,0-.09,1.91-.5,0,.32,1.17h0l-1.95-.11-1.39,1.47-1.81-.55-2.47,1-.36-.31.06.34-1.55.92-.33-.25-.32.55-.63,0-.1.46-1.12.11,0,.77-.36-.09-.17.52-.53-.37-.48.4-1.34-.13-.78,1.17.51.57-1.16.32-1.21,1.42-3.88-.9-1.9-1.71-.83-.08.32-.82-.4-.69-1.34-.54-.29.61-.24-.38-2.57.54-.12,1-.92.69-2-.08-1.74-1.29-1.45.37-.74,1-.78-1-2.19.22-.51-1.45-1.47-.44h0l.33-3.56L132.89,191l1.06-4.55-.84-1.39.62-2.81h0l.53.58,1.29-.39,1.64,2.44.71-.6,1.38.76.33-.43.62.13.11-1.69.55-.77.54.11-.07-1.25.44-.24,3.06-.27.19-.43,3.28,1-.14-.77,1.13-1.3-.31-.5.49-3.26-.8-1.31-1.42.17-1.44-2,.66-1.69.8.45.24-1.39.55-.1.15-.57.72.69.62,0,.21-1.9,1.41.29.61-.93,2.86-.86v-1.69Z"/>
    <path id="PT-03" fill="#CCCCCC" class="land" d="M157.16,18.36l-.34,2.48-.83,2-1,1,2.6-.49,1.52.67-.26,3.43,3.66.65,1-1.14,1.27,1.76-.31.72-.59.12.07.71-.85.5.08.53-1-.07-.29,1-1.12.48-.1,2-1.26,1.5.43.12-.21.71h0l-.46,1.17-1.33,1.19-1.09-1L156,39l-1-.58-.84-.72.21-.73-.6-.14-.22-.81L152,35.51l-.28.77-.75,0-1,1-.3,1.19-.92-.43-.3-1.07-2.15.63.31-.8-.48-.14-1,.89-.77-.53-1.44.3-.54,1-2.91.2h0l-.4-1.75.41-.36h0l.62-.37-.46-.52-1.42-.3-.62-1.07-1,.13-1.42-1.11-.93-.11h0l-1.09-5.93h0l1.67-.09,1.9-1.11,1-.07.41.47.25-1,1.23.85.85-.36.46.81.7-.32-.21-1.35.81-.68.1-2,.53-.53.46-.05,0,.53.77-.22L145.37,21l1.56-.55.77.44,1.39-.06.39-.83.71.41,2.39-1.74.91.21.07-.45h0l2.25.43Z"/>
    <path id="PT-04" fill="#CCCCCC" class="land" d="M196.67,11.18l1,.22.57,1.71.76.28,3.32-.12,1.05-1.17,1.22,1-.68,2.58,1.75.5-.88,3.94-.8,1.47.41.26.45,2.4,1.33,1,1.33-.4.41-.77,4.49,1,1.51,1.22.59,1.09,1.08.52.39.84-1.51,2.24-.66.31.22.58-.47.08.13.49-.71.32-.67,1.23.17.88-1.05.77.49,1-1.1.31-.44-.64-.73.37-.12.62.52.44-1.21.48L208.11,40l-1.55.58.27.65-.57.41-.83-.4-1.54,1.53-.64-.68-.26.49-1.53-.17L200.1,44l-.56,1.55-1.86,1.58.44,1.28-1.73,2.82-1.88.4L193,51.13l-.48.38h0l-1.19-.29-.72.47-.19-.49L189,50.89l-.47-.78-1.37-.73,0-1,.59-.89L186.24,47l.49-.55-.08-1.19-1.47,2.22-2.71-.79-1.73.23h0l-1.68-.35-1-2-1.31-.65h0l.56-1.57.85.16L178,40.79l.93-.76-.42-.44.61-.7,1.31-.3-1.48-1.11.28-.49-.45-1.62h0l0-1.06h0l2.11-1-.1-1,.56-1.18,1.73-.3-.93-1.7V28l1.58-5.09,1.16-1.37,0-1.06-.72-.52h0l-.52-1.34h0l.31-2.77h0l.86-1.67-.51-1,.13-1.3,1.39-.78,1.7.73.49,1,2.08,0,.85-1,.68.21.42,1,1.65.2L196,13l.32-2Z"/>
    <path id="PT-05" fill="#CCCCCC" class="land" d="M165.65,84.65l1.53-.29.76-1,1.7-.53,1.17-1.07.32-1,.87.51,1.39-.27.7-2.1.88-1.08.8-.29.46.62.68-.21,1,.46,1.1-.48.46.44.55-1.2.66.31.43-.53.71.34-.1,2.5-1,1.79-.82.42.43.54,2.49.92.87-1.14,1.62.72.8-.59.17-1.21.59-.51.89,1.9h1.67l.53-.49,2,1.35h0l-.38.79-1.56.53-.54,1.61.42.41-.15,1.34.89,1.29h1.65l.75,1.91.78.24.9,2L193.93,95l.06,1.59-.69.69.1,2.18L192,101.18l-1.22.71.33,1.54-1.23,4.17-4.29.71-3.16-.56-2.59,1.06-3.85-.88-2.72-.05h0l-1.29.25-1.74,1.42-1.08-1.07-1,.51-.6,1.77-1,.2-.47,1L164.3,113h0l.46-1.35h0l-.38-.76h0l-1.33-2-.87-.21-.71-1-1.36.29.13-2.26-.52-1.17-.64.69-.51-.62-1-.17-.55.49-.11,2.61-.6.54.69,1.69-2.51.25-3.21-1.38.23-4.42-.44-1-.71.41-.62-1.07h0v0h0l-.25-.53.66-.44-.1-.94,1.51-.56.55.21.75-1.25.56.25.61-.41,1-2h0l.12-.6,1,.07-.11-.75.64.44.3-.62.74.37.05-1,.45.56.38-.06-.27-.69.51.46.64-.45.44.49.33-1h1.61l-.44-1.23,1.63-1,1.24.3.53.62.06-1.42h0l.31-.29-.66,0h0l1-.38.43.89,1-1.15-.27-.32.62-.25L167.1,89l-1.9-1.52-.4-.84Z"/>
    <path id="PT-06" fill="#CCCCCC" class="land" d="M134,72.65l2.6,2.53h0l1.23,1.27h0l.88.09.11-1.63.53-.82,1,.27.29.59.08,2.67,2.13-.91v.92l.74.59-.11,2.9H142l.2,1,1.12-.07,1.06.54L144.6,81l1.24-.27.14-1.16.94.44.55-.25.05-.82h0l.42-.11.44.63.93-.14,1.54,1.44,1.83-.83.25.4.45-.47,1.16.49,2.89-2.16,2.17-.81,2.83-2.81,1.76-1h0l0,.69,1,1-.44.74-1.18.44.09.61.58.45.94-.08-.25,2.3,1.48.73-.23.63-1.23.36-.68,1.73,1.38,1.48h0l-.85,2,.4.84L167.1,89l.14.76-.62.25.27.32-1,1.15-.43-.89-1,.38h0l.66,0-.31.29h0l-.06,1.42L164.3,92l-1.24-.3-1.63,1,.44,1.23h-1.61l-.33,1-.44-.49-.64.45-.51-.46.27.69-.38.06-.45-.56-.05,1-.74-.37-.3.62-.64-.44.11.75-1-.07-.12.6h0l-.43-.24.71-1.3-1.45-2.07.38-2.09-1.11-.69-1,1.54-1-.62-1.06.9-.7,1.48.87.83L150,95.77l-1.09-1.2L147,97.23l-1.11-.33.92-1L145.32,93l-.34.44.31.75-1-.83-1.05,1.3-1,.07-.52,1.46L141,93l-.94,0-.74,1.45-.88.08.06-.85-1.09-.78-2.87-.45-1.08,1.17-1.23-.66-.92.21-.8-.86h0l1-3.83-1.51-2.06,2-5.9Z"/>
    <path id="PT-07" fill="#CCCCCC" class="land" d="M151.58,135.38l.29.37,1.38-1.72.36.23.36-.48.61.6.06-.44h.85l.17.4-.69.36.55,1.41.5-.29,0-1.21.5-.39,1.79,1.39-.27,1.64,1.12-.14,2-1.23.94,1.75.57.21,0,.72,2.72.51.14-.46,1,0,.61-1.25,1.1,1.08.46-.69,1.45.73,1.05-1.71,1.25,0,.71-.63-.34-1,.62-.64.65.91.87-.08-.09.5,1.11.45-.42,1.55,1.37.91-.15,1.07.73,1.14-.62,0,.6.45.43,1.43.73-.4.42.55.85-.25.08-.86.6-.21h0l.38-.41h0l.47.52,1.1-.81.58.77.6-.1-.79,2,.91,1.26h0L182.15,146l-.4,3.43.91.58-2.24,4.43-.22,1.43.67-.18,0,.53-1.17,1.36.59-.18,1.18.83.26,1,3.21,4.63.61.14,1.35,3.51h0l-.71.66h0l-.69-.08.06.67-.3-.12-1.24-2.57.28-.9-1.71-.67-1.36-2.72-1.57.41-.59.86-1.61,0,.31.33-.39.92-.73.27-.18.7h0l-.82,1h0l-1,.41-.06.73h-2.19l-.7-.6-1.44-.23-1.09.37-2.83-1.85-2.52-.21-4.5-2.66-.89.75L157,161.92l-2.4.62-.66-.66-.39.38h0l-1.05-.91-2.26-.44-.25-.72-1.43,0,1.22-1.6-.57-.49.57-.06-.24-.53-1,.09.4-.87-1.85-3.51-1.71,1-.71-.26-1,.43-.9-1.24-.49.19.44.95-.71.32-.12-.68-1.27-.14-.08-.66-2-.06-.45-2.52,4.81-4.16-.31-.82.63-1-1.76-.09h0l1.46-1.77.95.5,1.27-1.58.35-.14.32.59,1-1.35,1.14.71.64-.82.35.58.29-.93,1.28,1-.21.33.51.67.9-.44.79.87-.24.35,1-.07-.13.51,1.14.62.51-1.23-.79-.66-.3.53-.2-.87-.67-.37.91-1.17-.73-.53-.82.2-.08-.41-1.95-.92.93-1.24v-1.43Z"/>
    <path id="PT-08" fill="#CCCCCC" class="land" d="M164.29,214.52l.55.1-2,1.54.45-1Zm-3.7-.07,2.27,1.68-1.73-.23-1.68-1.24Zm3.92-.63.37.36-1.61.47Zm-13-2.4-2.1.43-2.13-1.16-2.25.64-3.12-1.28-2.55-.2-1.53.64-.09,1.1-1.87-.3-1.93.93-1.64.09-.75.73-1,0L128.85,215l-.5-1.25-1,.11,3-5.64-.47-1.23.71-.4,1.12-2.47-.56-2.06,1-1.23,1.53-3.6h0l1.47.44.51,1.45,2.19-.22.78,1,.74-1,1.45-.37,1.73,1.29,2,.09.92-.69.12-1,2.57-.54.24.38.29-.61,1.33.54.41.69-.32.82.83.08,1.91,1.71,3.87.89,1.21-1.41,1.16-.33-.51-.57.78-1.17,1.35.13.47-.4.53.38.17-.52.37.09,0-.77,1.13-.11.09-.46.64,0,.32-.55.33.26,1.55-.92-.06-.34.36.31,2.48-1,1.8.56,1.4-1.48,1.95.11h0l.64.16.25.95.64.44-.16.74.74,1.95-.54.41.7.71-.05,3.15.65,1.48-.38.94.64,1,.19,2.12-1.64-.22-3.2,1-7.37,5.39-1-.48-1.39.82v.84l-.46.15-1.78-1.13-1.33.25-4-2.62-2.27-.8Z"/>
    <path id="PT-09" fill="#CCCCCC" class="land" d="M177.16,56l1.23.85-.62.88-1-.59Zm3.58-9.08,1.74-.23,2.7.79,1.47-2.22.09,1.19-.49.55,1.46.49-.59.89,0,1,1.37.72.47.78,1.44.32.19.49.73-.47,1.19.29h0l.31,1.12,2,2.2.32,2,1.27.85.23.9v.63l-.79.22.32,1.8L195.71,63l1.17,3.8-1.62,4,1.41.65.18,1.61-1.72,2.48.48,1.81,1.69,1.78-.41,1.49-2.12,1.19-.3,1.53-2.54.2h0l-2-1.34-.52.49h-1.68l-.89-1.9-.6.51-.17,1.21-.8.59-1.61-.72-.87,1.14-2.49-.92-.43-.55.82-.42,1-1.79.1-2.5-.71-.33-.44.52-.66-.3-.55,1.19L179,78l-1.1.48L177,78l-.68.21-.45-.62-.8.29-.88,1.07-.7,2.1-1.39.27-.87-.51-.31,1-1.18,1.08-1.7.53-.76,1-1.54.29h0l-1.37-1.48.68-1.72,1.23-.36.23-.63L165,79.75l.25-2.3-.94.08-.58-.45-.1-.61,1.18-.43.44-.75-1-1,0-.69h0l5.14-2.53,2.67-.57-.26-.5.73-2.48.75-.58L173,66.2l.51-.55-1.76-1-.18-.62.82-.85-1.81-1.34,1.33-3,.79-.82,1.49.12,1.91,2.37,1.59-2.75.74.41.18-1.82h0l1.2-.9h0l.35-1.58-1.69-.8v-.92l1.31,0-.26-1.34Z"/>
    <path id="PT-10" fill="#CCCCCC" class="land" d="M137.1,111.34h0l.48.63-.77,1.27-.6.47-.61-.63-.4.3.55,2-2.31-.12-3.19.69-1.33,3-.72-.13-.7.72-.11,3.25h0l-1,.14-.41-.69-.85,0-.18.42h0l-1.15,1h0l-1.08,1.9-1.11.72-.77-1.47.49-.86-.42-1.36-1.42-.1-.32-.52-1.3,1.39-1.4-.34h0l-.76-2.32-1.39-.44.39-.44,1.59.29,3.33-2.53.93.76-.36.26,1.25,0-.55-.07-.83-1.33,1.77-2.64,1.08-.15-.26-.7,2.19-2.7,0-.59-.39-.08,1.14-4.73,5-13.29h0l.8.86.92-.21,1.24.66,1.07-1.16,2.87.44,1.09.78-.05.85.88-.08.74-1.45h.94l.72,3.25.52-1.46,1-.06,1-1.3,1,.83-.31-.75.34-.44L146.83,96l-.91,1,1.11.33,1.89-2.66L150,95.8l.28-1.21-.86-.83.7-1.48,1.06-.9,1,.63,1-1.55,1.12.7-.39,2.09,1.45,2.07-.71,1.3.44.24h0l-1,2-.61.42L153,99l-.75,1.25-.55-.21-1.51.56.1.94-.66.44.25.53h0l-1.49-.28.11,1.67-.5-.51-1.1.92-.76-.34-1.54,1.2-.77-4.39-.91.94-.43-.53-.69,1.08-1.62,1-1.33-.53-1.31.66-.13,1.11.52.89-.47.66,1.43.6-.49,1.37-1.67.92Z"/>
    <path id="PT-11" fill="#CCCCCC" class="land" d="M122.62,146.78l-2.24.55-2-.29-1.35,1-2.16-1.16-1.09.51-1.88-.76.45-1.68-.9-1.24,2.6-6.54.25.18-.55-2.59.18-2.93,2.41-5.21.14-3.6h0l1.4.34,1.31-1.39.32.52,1.42.11.43,1.36-.48.86.77,1.47,1.11-.72,1.08-1.9h0l1.15-1h0l.19-.42.85,0,.41.69,1-.14h0l.61.39-.19,1.52.59-.23,1.61.83,1.15-.64.42.83.93.29.2,1.51-1.7,0-1,.59,1.44,1.77,2.19,1.3.51,1.54-1.32,1.23-1.16,0,.6.48-1.13,1.9.84.29-1.28.74-.63,2.27-1.82,2.5h0l-.66-1,.36-.62-.52-.66,0-2.33-.77,2.15-2.05,2.76-.57,3.53Z"/>
    <path id="PT-12" fill="#CCCCCC" class="land" d="M173.39,108l1.19,2.93,1.21.69,1,1.56,1.25.2.27,1.57.62.4.46-.27,1.69,1.27-.9,3.07.48,1.84,2.4,2.35-.52,1,.21,1.84,1.06.85,2.31.65-.29,2.54,1.22.38,2.29-.73,1.64,1.19.67,1.35-.26.61.53.64-3.19,4.72.6,1.14-.2.57-.92.42-.88,1.55-1.39.4-2,2.2h0l-.91-1.26.79-2-.6.1-.58-.77-1.1.81-.47-.52h0l-.38.41h0l-.6.21-.08.86-.85.25-.42-.55-.73.4-.43-1.43L177,141l.62,0-.73-1.14.15-1.07-1.37-.91.42-1.55-1.11-.45.09-.5-.87.08-.65-.91-.62.64.34,1-.71.63-1.25,0-1.05,1.71-1.45-.73-.46.69-1.1-1.08-.61,1.25-1,0-.14.46-2.72-.51,0-.72-.57-.21-.94-1.75-2,1.23-1.12.14.27-1.64-1.79-1.39-.5.39,0,1.21-.5.29-.55-1.41.69-.36-.17-.4h-.85l-.06.44-.61-.6-.36.48-.36-.23-1.38,1.72-.29-.37h0l0-.7-.71,0-.58-1.92-.73-.32v-.88l-1.38-.59-.28-.6,1.42-2.16,1.9-.74,1.65-1.5,1.1-1.29-.14-.7.64-.78,1.79.35,1.65-2.59-.11-.91,1.94-.76.92-1.11L159,116.69l-.49-1,1.69-3.72,3.29,2.19.83-1.08h0l1.74-1.1.47-1,1-.2.6-1.77,1-.51,1.08,1.07,1.74-1.42,1.29-.25h0Z"/>
    <path id="PT-13" fill="#CCCCCC" class="land" d="M137,45.67l-.84-1.46-.7-5.37-1.5-3.47L134.3,33h0l.93.11,1.42,1.11,1-.13.63,1.08,1.42.29.46.53-.62.37h0l-.41.36.4,1.75h0l2.91-.19.54-.95,1.45-.3.76.53,1-.89.48.14-.31.8,2.15-.63.3,1.07.92.43.3-1.19,1-1,.75,0,.28-.77,1.5.48.22.8.61.15-.22.73.85.72,1.05.58.67-.58,1.09,1,1.34-1.19.46-1.17h0l0,.62.8.32-.52,1,1.78,1.13-.43.5.16.75,1.28,1.28-1.15,5.11h0l-1.26-.12L157.13,49l-1.36-.46-1.25.71-2.18-.43L150.46,50h0l-1-.59-1.68,1.65-1.62-.49-.06.84.55.39-.19.9-1.29-.88-.59-1.29-.25.46-.93-.43-.2.55.82.39-.79.33-.09.5-.65-.22-.41-1-.91,1-1.4.29-.14-.72-1.23.41h0L137.72,47Z"/>
    <path id="PT-14" fill="#CCCCCC" class="land" d="M127.37,122.83l.11-3.25.7-.72.72.13,1.34-3,3.19-.69,2.31.12-.54-2,.4-.29.61.63,1.36-1.71-1-3.08,1.67-.92.49-1.37-1.43-.6.47-.66-.52-.89.13-1.11,1.31-.65,1.34.53,1.62-1,.69-1.08.43.53.91-.94.77,4.39,1.54-1.2.76.34,1.1-.92.5.51-.1-1.67,1.5.28h0v0h0l.61,1.07.72-.42.44,1.06-.23,4.42,3.21,1.38,2.51-.24-.69-1.7.6-.53.1-2.61.55-.49,1,.17.5.62.64-.69.53,1.17-.13,2.27,1.36-.29.71,1,.87.21,1.33,2h0l.38.75h0l-.46,1.35h0l-.83,1.08-3.29-2.19-1.69,3.72.49,1,1.71,1.53-.92,1.11-1.94.76.11.92-1.65,2.58-1.79-.34-.63.78.14.7-1.1,1.28-1.65,1.51-1.89.73L148,130.41l.29.61,1.37.59v.88l.73.32.58,1.92.71,0,0,.7h0l-.46.56v1.42l-.93,1.25,2,.92.08.42.83-.2.73.53-.91,1.17.67.37.2.88.3-.54.79.66-.51,1.23-1.15-.62.14-.51-1,.07.24-.35-.8-.87-.9.45-.51-.67.21-.33-1.28-1-.29.93-.35-.58-.64.82-1.14-.71-1,1.35-.32-.59-.35.14L144,143.18l-1-.5-1.47,1.78h0l-2.09-.79.53-2.33-1,.41-.31.86-2.17-1.45L135,145.3l-1.2.35-1.5-1.11-1.69.83-.37-.22-.11.43-.58-1h0l-.6-.74.45-.27-.14-.77-1.06-.91h0l1.82-2.5.63-2.27,1.28-.73-.84-.29,1.14-1.9-.6-.48,1.16,0,1.32-1.23-.51-1.54-2.19-1.3L130,128l1-.59,1.71,0-.2-1.51-.93-.29-.42-.83-1.15.64-1.6-.83-.59.23.2-1.52Z"/>
    <path id="PT-15" fill="#CCCCCC" class="land" d="M134.15,158.18l3.4.11-.89-.95-.67,0v-3l-.57-.31-.09-1.48-.66,1.32-.81-.64.22,1.13-.92.22,1.7.16.06.75-.77.58-.59.14.12-.69-3.29-1.38-1,.47-.16.81-1.48.37-1.51,1.33-1.12.45-1.39-.33-.82.55-1.1,0-.86.81-.85-.18,1.3-3.69,1.19-.74-1.2.31-.93-3.58-1.62-2.32,3.69-1v.91L124,149l-.85-.13.67,1.27,0-.88.77-.08,1,1.63-.47-1.8-.82-.44,1.57-.78.11.71.55-.36.82.77-.46-1.27,1.28-.69-2,0-.54.44.14-1,2.6-1.67,1.16-.11h0l.58,1,.11-.43.37.23,1.69-.82,1.5,1.11,1.2-.35,1.44-4.14,2.17,1.46.31-.86,1-.41-.53,2.33,2.09.79h0l1.76.09-.63,1,.31.82-4.81,4.16.45,2.53,2,.06.08.66,1.27.14.12.68.71-.32-.44-.95.49-.18.9,1.24,1-.43.71.26,1.71-1,1.86,3.51-.4.87,1-.09.24.53-.57.06.57.49-1.23,1.6,1.43,0,.26.72,2.26.44,1,.91h0l1.1,2.15v1.7l-2.86.86-.61.92-1.4-.29-.22,1.9H149l-.72-.68-.14.56-.55.11-.25,1.38-.8-.45-.66,1.69,1.45,2,1.42-.17.8,1.31-.49,3.26.31.5-1.13,1.3.14.78-3.28-.95-.19.43-3.06.26-.44.24.07,1.25-.54-.11-.56.77-.1,1.69-.62-.13-.33.43-1.38-.75-.71.6-1.64-2.45-1.29.39-.53-.58h0l-.48-4.31-1.41-.32-.45-.73-.66.08,1.58-2.76,1.56-5,.44-3.72-.32-3.94-1.31-3.37-2.55-2.86,2.59,1.92.82,2.23-.26-2.13Z"/>
    <path id="PT-16" fill="#CCCCCC" class="land" d="M152.73,4.68,153,8l2-.73.69.42.44,1.87-.33.7-1.09.26-1.11,1-1.7,2.93.53,1.67,1-.11.13,2.46h0l-.07.45-.91-.21-2.39,1.74-.71-.41-.39.83-1.39.06-.77-.44-1.56.55L144.2,22l-.77.22,0-.53-.46.05-.53.53-.1,2-.81.68.21,1.35-.7.32-.46-.81-.85.36-1.23-.85-.25,1-.41-.47-1,.07L134.87,27l-1.67.09h0l-.51-2.47-.44-.54-.15.43L131,21.29l.18-2,.46-.54-.45-.45,0-2.08,1.73-1.73,2-.93.38-1.38,2.59-1.55L138,9.45l.68-.75,2.84-.27.83-1.08,2.42-.12.45.43,1.49-.17.59-.6,1,.28.47-.87,1.85-.73.15-.64.94.14.8-.89Z"/>
    <path id="PT-17" fill="#CCCCCC" class="land" d="M161.75,13.81l.67.12-.24,2.74.61.61,1-.91-.12-.62,1.68-.08.9-.67.95.28,1-.65,1.48,1.12,2.15,0L171,18l2.85-.54.6-1.16,1.57.18.28,1.09.57.38-.08,1,2-1.92.3.52,1.3-.09L184,15.82h0l-.31,2.77h0l.52,1.34h0l.72.52,0,1.06-1.16,1.37L182.18,28v1.18l.93,1.7-1.73.3-.56,1.18.1,1-2.11,1h0l0,1.06h0l.45,1.62-.28.49,1.48,1.11-1.31.3-.61.7.42.44-.93.76.13,1.73-.85-.16-.56,1.57h0l-2.24.48-.65.82-.77-.36-1.33,1.34-2.36-.27-1.05.89L165.18,46l-.53.67-1.9-.47-1.19,1.55h0l1.14-5.11-1.28-1.28-.16-.75.43-.5L159.91,39l.53-1-.8-.32,0-.62h0l.21-.71-.43-.12,1.26-1.5.1-2,1.12-.48.29-1,1,.07-.08-.53.85-.5-.07-.71.59-.12.31-.72L163.48,27l-1,1.14-3.66-.65.26-3.43-1.52-.67-2.6.49,1-1,.83-2,.34-2.48h0l1.2-.43L159.58,16l1.68-.11Z"/>
    <path id="PT-18" fill="#CCCCCC" class="land" d="M176.71,43.93l1.31.65,1,2,1.67.35h0l-1.3,3.89.26,1.34-1.31,0v.92l1.69.8-.34,1.58h0l-1.2.9h0l-.18,1.82-.73-.41L176,60.54l-1.91-2.37-1.49-.12-.79.82-1.33,3,1.81,1.34-.82.85.18.62,1.77,1-.51.55.29.73-.75.58L171.76,70l.26.5-2.67.57-5.14,2.53h0l-1.77,1-2.83,2.81-2.17.81-2.89,2.16-1.16-.49-.45.47-.25-.4-1.83.83-1.54-1.44-.93.14-.44-.62-.42.11h0l0-1.72,1.18-1.34-.57-1.85,2.7-1-1.1-1.16L149,69.51l2-.83-1.55-.78-.08-2.41-.92-.75-.19-1.19,1.88-.71L151.3,60l-.57-1.27.76-.37,1.28.77.73-.83,1.19.72.84-.75-.79-1.3-.15-2.07L156,53.24l-.06-.89-.25-.19-1.08,1.45-1.92-.82-.59.17.28-.67-1-.07-.2-.56.32-.09-.2-1.26-.85-.34h0l1.88-1.18,2.18.43,1.25-.71,1.36.47,3.19-1.38,1.26.12h0l1.2-1.55,1.9.47.53-.67,3.13.85,1-.89,2.35.27,1.33-1.34.77.36.65-.83Zm0,13.2,1,.59.62-.88L177.16,56Z"/>
    <path id="PT-30" fill="#CCCCCC" class="isleMadeira" d="M62.54,106.42l.33,1,.49.83-.51-.25-.17-.31-.28-.84Zm-.62-3,.49,1,.06,1-.77-1.89-.67-.54-.09-1.18.59.7Z"/>
    <path id="PT-31" fill="#CCCCCC" class="isleMadeira" d="M41.18,90.85l.5.79.77.74.61,0,.39.43,1.32.26,1.12-.26.83-.56.82.14L49.43,92l.63.4.64.73.87.75.43.71.77.21.63.18,1.05.08.55.15.6,0,.3.14-.14.35-.84,0-.5.12-.32.56-.26.11.09.35-.38.62-.62.21-.32.83-.88.84-.59.15-.9-.34-.87-.05-.35.19-.92.32-.27-.32-1-.36-1,0-2.19-1-.59,0L42,97l-2.34-1.26-1-1.35.06-.32-.26-.75L38,92.85l2.09-2Zm27.27-8.58.28,0-.17.41.31.41-.27.24.16.36-.62-.14-.47.11L66,85l-.15-.26-.28,0-.15-.32.3,0,.31-.5.15-.58-.11-.16.23-.3.32,0,.2-.37.6-.18.4-.36Z"/>
    <path id="PT-40" fill="blue" class="isleAcores" d="M77.6,208l.12,0,.1.19.24.06.29,0V208l.07,0,.35.21-.06.33.1.18-.16.23,0,.2.09.08.17.06.22.1,0,.14.39.22-.12.07,0,.19.25,0,.08.22.13.06-.08.27,0,.17L80,211l-.13.28.09.17-.09.06,0-.08-.21,0h-.19l-.46,0-.34-.09-.4.08-.38-.39,0-.21-.27-.2-.35-.09h-.31l-.3.27-.15-.06L76,211l-.2-.27-.14.15-.17.1-.33-.2-.14-.25-.06-.68-.35-.64.13-.49.24,0,.11-.24.19-.09.22.06.37-.3,0,.2.33.21.21-.25.36.18.23-.11,0-.27.19.11.16-.15.09.07Zm-.48-14.4.11-.06,0-.18h.14l.07.09,0,.22.08.09.22-.09.51-.09.33-.32.26.1.46-.26.31-.05.25-.23.29,0,.45-.26.15-.36L81,192l.06.22.56.25h.22l.39-.21.28.05.2-.14.17.19.54.18h.33l1.14-.24.41.1.22-.05.79.31.3.94.06.3.11.47-.24.29-.06.26.15.49-.1.44-.24.49-.37.44-.29.2H85l-.3.24-.2,0-.37-.06-.79-.36h-.79l-.64.29-.12.1-.38.12-.29.11-.18.23-.23-.08-.8.09-.52.43-.71-.12-.35.07L78,198l-.22.11-.28-.12-.14.13-.39.07-.41-.19-.2,0h-.28l-.34-.1-.13.12-.29.05-.15.23-.29.08-.25-.28-.39-.09-.26-.34-.76-.54-.14-.23-.56.14-.37-.22-.36.08-.31-.26h-.43l-.21.28-.35.07-.71.17-.45.18-.31-.09-.51-.34-.23-.31-.33-.12-.24-.35-.71-.45-.51-.34-.16-.37-.19-.09-.35-.25-.57-.37L65.1,194l-.62-.43,0-.31-.35-.67,0-.27.25-.21.1-.26.12-.26h.26l.23-.3,0-.24L65,191l.07-.23.57.16.42-.31.09-.2.18-.05.57.2.4.26.43.21.11.14.48.12.32.4.14.48.18.06.18.77.14.12.2-.05.09.24.5.19h.41l.34.15.4-.09.25.1,0-.05.21.23.23.1.58.29.34-.07.24-.09.19.12.27,0,.86-.32.2-.25.56-.35.28-.17.08-.17h.08l.17.34.11.21.08.13.16.23.22-.06.3.15,0-.19.11,0,.09.16.2.06Z"/>
    <path id="PT-41" fill="red" class="isleAcores" d="M33.94,177.26l.78.12.28.22.39.07.79.48.23,0,.23.09.23.19,0,.13.16.15h.21l.16.18.09.31.25.26.39-.05.39.32.39.09.45-.1.35.49.34.13.08.13.36,0,.21.18.29.53.3,0,.33.27h.83l.12.14.28.08,1.64.21.22,0,.51.15,0,.2.67.4.16.26,0,.4-.46.15h-.32l-.13.14-.15,0-.14.13-.33-.09-.14.18H44l-.76-.26-1-.09-.2.07-.67-.12-.3.11,0,.15-.14.07-.15.25-.34,0-.65.38-.36.1-.35-.21-.16-.1v-.31l0-.26-.51-.33-1,.08-.86-.16-.34.06-.32-.12-.5.14-1.11-.55-.38-.08-.19,0-.16.21-.59.05-.62-.5-.49-.11-1.16-.67-.14-.52-.25-.21-.35-.65-.05-.22.08-.25-.08-.46L30,179l.16-.61h.2l0-.12.26-.08,0-.22.42-.3.07,0,.87-.36.91.22.19-.16.33.07Z"/>
    <path id="PT-42" fill="green" class="isleAcores" d="M24.48,174h.32l1,.36.33.18.05.15.46.41.81.2.71.69-.17.19-.15.4.15.4-.25.32.29.59-.09.12-.46,0-.18.22v.38l.09,0,.05.12-.09.07.14.15-.11.15-.12-.17-.06.05-.11,0,0-.13.17-.1-.08-.12-.09.08-.26,0-.35.13-.68-.05-.25.12h-.7l-.35.12-.39,0-.55-.25-.31.09,0-.11h.17l0-.12-.08-.07-.08-.73-.25-.6-.22-.16-.19.12-.1-.07-.14,0-.47-.29-.61-.38-.31-.4-.11,0v-.27l-.19-.07.05-.18h.43l.2-.2.32-.09.81,0,.29-.11.43.09.38-.28.47-.76Z"/>
    <path id="PT-43" fill="black" class="isleAcores" d="M37,169.42l.91.16.81.29.95.57.14,0,1.63.72,1,.3.3.29.25.09.19-.06.11.22.75.15.48.33.6.19.29-.2,0,.19.18.17.35.08.33-.06.6.47.42.12.46.54.41,0,.11.24.57.22.24.21.21-.06.35.48.45.06.56.23,1.61.9.29.14.19.13.59.23.1,0,.09.21.53.19.81.7-.17.08-.12.15-.36.27-.27-.08-1.5.15-1-.5-.25-.3-.29-.09-.36-.27-.69-.27-1-.81-.4,0-.49-.27-.35.12-.86-.32-.19.08-.29-.06-.3-.19-.4-.44-.6-.39-1.23-.21-.28-.23-.26,0,0-.12-.19-.15-.15,0-.51-.23-.61-.42L41,173l-.31-.53-.29.14-.11-.16-.28,0-.06-.1.12-.1,0-.22-.32,0,.1-.16-.13-.23-1.24-.61-.78-.73-.32-.46-.38-.28Zm33.44-1.9.21.09.13,0,.17.19.26-.06.26.22h.3l0-.16.09-.13.17.1.27-.11.18.13.17.14.2-.1.17.14.41.07.45.23.44-.07.3.17.07.07.67-.16,1.3,1,.09.65.17.2.32.15-.24.21-.28.05,0,.58.35.25.25.23-.05.16.09.14-.22.33-.28.13.06.28-.37.06-.27.2,0,.34,0,.2-.12.33.05.23-.38.05-.26-.24-.22.18-.4-.17-.47.18-.32,0-.85-.41-.35.09-.2-.09-.26.13-.36-.14-.19.16-.26-.11,0,.12.16.32-.29.15-.23-.19.2-.26-.06-.23-.37,0-.24,0-.21.1h-.38l-.29.09-.31-.11-.66-.51-.58-.31-.22-.14-.58-.32-.58-.84-.14-.72-.14-.21,0-.66.25-.52-.19-.3L67,169l.14-.28,0-.13.15-.22h.15l.79-.52,1.42-.29.54-.05Z"/>

    <path id="PT-44" fill="orange" class="isleAcores" d="M46.1,155.66l.52.17.24.24L47,156l.19.1-.13.09.3.17.34.6.06.26.17,0,0,.15v.18l.44.4.13.47,0,.1.18.16v.17l-.13.08.09.13h-.28l-.37.17-.66-.21-.12.07-.12-.09,0-.14-.25-.09v-.16l-.87.06-.36-.44-.33-.85-.31-.28v-.19l-.17,0,.05-.17.55-.51,0-.2.09-.2.07-.06.17,0,.2,0,.09-.08Zm-29.44,5.08.12,0-.07.2.17.41.59.41.15-.16.14.05,0,.09.1.05.27-.07.14-.19.06.06.14.22-.05.22.2.22-.06.06.07.43.28.19.11.27.28,0,.09.39-.09.24-.35.2-.19.29v.14l.24.33-.17,0-.2.1-.06.22.08.4-.14.37-.21.22,0,.33-.34.21.06.11-.74.19-.89-.12-.13.15L16,167l-.21-.15h-.29l-.08-.23-.18-.11.08-.08-.12-.1,0-.21.09-.08-.11-.16.23-.16v-.11l-.16-.11v-.17L15,165l-.05-.38.15-.38-.12-.4-.16-.18.13-.16,0-.14h.18l.09-.19v-1l.28-.24,0-.15.2-.08.27-.46-.11-.37.74,0Zm3.22-8.24.63.28.19.5v.33l-.15.52-.51.46-.21.09-.08.13h-.19l-.12,0-.05-.16.21-.21-.05-.21-.25-.33-.07-.37.3-.67-.06-.28.19.05Z"/>

    <rect class="isleAcores box" x="7.36" y="143.74" width="89.06" height="71.74" rx="5.11"/>
    <rect class="isleMadeira box" x="6.69" y="66.03" width="89.06" height="71.74" rx="5.11"/>
    <rect class="box" x="0.13" y="0.13" width="219.6" height="223.22"/>

</svg>