<svg enable-background="new 0 0 114.3 89.6" viewBox="0 0 114.3 89.6" xmlns="http://www.w3.org/2000/svg"><path d="M106.3 10.1h-25.5v-4.5c0-3.1-2.5-5.6-5.6-5.6h-36.6c-3.1 0-5.6 2.5-5.6 5.6v4.5h-25c-4.4 0-8 3.6-8 8v63.4c0 4.4 3.6 8 8 8h98.3c4.4 0 8-3.6 8-8v-63.4c0-4.4-3.6-8-8-8zm-37.6 57.2l-.1.1c-8.2 4.9-18.5 3.8-25.6-3.4-3.8-3.8-6-9-6.3-14.2l-4.9-.1c-.5 0-.9-.2-1.2-.5-.7-.7-.7-1.8-.1-2.4l8.3-8.3c.6-.6 1.7-.6 2.4.1l8.7 8.7c.7.7.7 1.8.1 2.4-.3.3-.7.5-1.2.5l-5.3-.2c.2 3.5 1.7 6.8 4.2 9.3 3.4 3.5 8.3 4.9 13 3.9 1.2-.3 2.1-.7 3.2-1.1.4-.2.7-.1 1 .2l3.8 3.9c.3.3.3.8 0 1.1zm15.2-14.5l-8.3 8.3c-.6.7-1.7.6-2.4-.1l-8.7-8.7c-.7-.7-.7-1.8-.1-2.4.3-.3.7-.5 1.2-.5l5.2.1c-.2-3.5-1.7-6.8-4.2-9.3-3.4-3.5-8.3-4.9-13-3.9-1.2.3-2.1.7-3.2 1.1-.4.2-.7.1-1-.2l-3.7-3.7c-.3-.4-.3-.9 0-1.2l.1-.1c8.2-4.9 18.4-3.9 25.6 3.3 3.8 3.8 6 8.9 6.2 14.2l4.9.1c.5 0 .9.2 1.2.5.8.8.8 1.9.2 2.5z" fill="#1B1B1B"/></svg>