<?xml version="1.0" encoding="iso-8859-1"?>
<!-- Generator: Adobe Illustrator 19.0.0, SVG Export Plug-In . SVG Version: 6.00 Build 0)  -->
<svg version="1.1" id="Capa_1" xmlns="http://www.w3.org/2000/svg" xmlns:xlink="http://www.w3.org/1999/xlink" x="0px" y="0px"
	 viewBox="0 0 512 512" style="enable-background:new 0 0 512 512;" xml:space="preserve">

	<style type="text/css">
		.st0{fill:#FFFFFF;}
		.st1{fill:#000000;}
	</style>

	<path class="st1" d="M294,198H60c-33.084,0-60,26.916-60,60v154c0,33.084,26.916,60,60,60h234c33.084,0,60-26.916,60-60V258
		C354,224.916,327.084,198,294,198z M314,412c0,11.028-8.972,20-20,20H60c-11.028,0-20-8.972-20-20V258c0-11.028,8.972-20,20-20
		h234c11.028,0,20,8.972,20,20V412z"/>
	<rect class="st1" y="120" width="40" height="40"/>
	<path class="st1" d="M40,40C17.909,40,0,57.909,0,80h40V40z"/>
	<rect class="st1" x="236" y="40" width="40" height="40"/>
	<rect class="st1" x="158" y="40" width="40" height="40"/>
	<rect class="st1" x="79" y="40" width="40" height="40"/>
	<path class="st1" d="M472,40v40h40C512,57.909,494.091,40,472,40z"/>
	<rect class="st1" x="472" y="354" width="40" height="40"/>
	<rect class="st1" x="472" y="276" width="40" height="40"/>
	<rect class="st1" x="472" y="198" width="40" height="40"/>
	<rect class="st1" x="314" y="40" width="40" height="40"/>
	<rect class="st1" x="472" y="120" width="40" height="40"/>
	<rect class="st1" x="393" y="432" width="40" height="40"/>
	<path class="st1" d="M472,472c22.091,0,40-17.909,40-40h-40V472z"/>
	<rect class="st1" x="393" y="40" width="40" height="40"/>

</svg>
