<svg height="511pt" viewBox="-21 0 511 511.01867" width="511pt" xmlns="http://www.w3.org/2000/svg"><path d="m291.421875 48.851562c-4.289063-27.582031-27.988281-48.851562-56.746094-48.851562-31.785156 0-57.640625 25.878906-57.640625 57.664062 0 31.785157 25.855469 57.664063 57.640625 57.664063 23.574219 0 43.820313-14.25 52.757813-34.558594 87.660156 23.527344 149.910156 103.488281 149.910156 195.582031 0 111.746094-90.921875 202.667969-202.667969 202.667969-111.742187 0-202.667969-90.921875-202.667969-202.667969 0-8.832031-7.167968-16-16-16-8.832031 0-15.9999995 7.148438-15.9999995 16 0 129.386719 105.2812495 234.667969 234.6679685 234.667969s234.667969-105.28125 234.667969-234.667969c0-108.160156-74.15625-201.726562-177.921875-227.5zm-56.746094 34.476563c-14.144531 0-25.640625-11.5-25.640625-25.644531 0-14.140625 11.496094-25.683594 25.640625-25.683594s25.644531 11.519531 25.644531 25.664062c0 14.144532-11.5 25.664063-25.644531 25.664063zm0 0"/><path d="m20.703125 62.871094c-6.25 6.25-6.25 16.382812 0 22.632812l197.332031 197.332032c3.117188 3.117187 7.210938 4.695312 11.308594 4.695312 4.09375 0 8.191406-1.558594 11.304688-4.695312 6.25-6.25 6.25-16.382813 0-22.632813l-197.332032-197.332031c-6.25-6.253906-16.363281-6.253906-22.613281 0zm0 0"/></svg>