<?xml version="1.0" encoding="iso-8859-1"?>
<!-- Generator: Adobe Illustrator 18.0.0, SVG Export Plug-In . SVG Version: 6.00 Build 0)  -->
<svg version="1.1" id="Capa_1" xmlns="http://www.w3.org/2000/svg" xmlns:xlink="http://www.w3.org/1999/xlink" x="0px" y="0px"
	 viewBox="0 0 297 297" style="enable-background:new 0 0 297 297;" xml:space="preserve">
    <style type="text/css">
        .st0{fill:#FFFFFF;}
        .st1{fill:#000000;}
    </style>
	<path class="st1" d="M200.114,230.395h60.097c7.655-15.004,12.376-31.758,13.425-49.498h-68.385C204.857,198.283,203.1,215.039,200.114,230.395
		z"/>
	<path class="st1" d="M115.884,245.461c8.241,28.664,20.829,45.904,32.615,45.904c11.786,0,24.372-17.24,32.614-45.904H115.884z"/>
	<path class="st1" d="M106.616,264.883c-2.366-6.023-4.468-12.531-6.299-19.422H45.865c18.703,26.648,47.49,45.682,80.814,51.539
		C119.037,289.969,112.213,279.127,106.616,264.883z"/>
	<path class="st1" d="M190.38,264.883c-5.595,14.244-12.42,25.086-20.063,32.117c33.325-5.857,62.113-24.891,80.817-51.539H196.68
		C194.849,252.352,192.747,258.859,190.38,264.883z"/>
	<path class="st1" d="M205.251,165.83h68.385c-1.049-17.744-5.771-34.498-13.426-49.504h-60.097C203.099,131.684,204.857,148.443,205.251,165.83
		z"/>
	<path class="st1" d="M97.398,175.783c0.757,0.668,1.58,0.809,2.138,0.809c0.557,0,1.381-0.141,2.137-0.809
		c2.563-2.264,62.776-56.059,62.776-110.688C164.449,29.203,135.329,0,99.536,0C63.742,0,34.622,29.203,34.622,65.096
		C34.622,119.725,94.835,173.52,97.398,175.783z M73.115,65.096c0-14.682,11.852-26.627,26.421-26.627
		c14.568,0,26.421,11.945,26.421,26.627s-11.853,26.627-26.421,26.627C84.967,91.723,73.115,79.777,73.115,65.096z"/>
	<path class="st1" d="M34.859,120.305c-6.515,13.969-10.538,29.332-11.495,45.525h43.321C56.417,154.102,44.258,138.289,34.859,120.305z"/>
	<path class="st1" d="M176.678,87.986c-1.079,4.488-2.438,8.92-4.016,13.275h8.45C179.746,96.512,178.259,92.084,176.678,87.986z"/>
	<path class="st1" d="M190.38,81.84c2.367,6.023,4.469,12.531,6.3,19.422h54.452c-17.187-24.488-42.893-42.537-72.807-49.848
		c0.509,2.949,0.866,5.949,1.043,8.998C183.404,66.336,187.105,73.5,190.38,81.84z"/>
	<path class="st1" d="M190.189,165.83c-0.424-18.275-2.375-34.953-5.382-49.504h-18.584c-9.626,19.627-22.818,36.92-33.837,49.504H190.189z"/>
	<path class="st1" d="M111.645,187.076c-1.353,1.193-2.865,2.158-4.478,2.9c0.769,14.734,2.523,28.32,5.022,40.418h72.617
		c3.007-14.549,4.958-31.225,5.382-49.498h-71.99C114.551,184.486,112.132,186.646,111.645,187.076z"/>

	<path class="st1" d="M79.54,180.896H23.364c1.049,17.74,5.768,34.494,13.425,49.498h60.093c-2.509-12.908-4.123-25.65-4.816-40.08
		C89.104,190.063,82.5,184.223,79.54,180.896z"/>

</svg>
